<svg width="24" height="24" viewBox="0 0 24 24" fill="none" xmlns="http://www.w3.org/2000/svg">
<rect width="24" height="24" fill="white" fill-opacity="0.01"/>
<path fill-rule="evenodd" clip-rule="evenodd" d="M12.7657 3.98453C13.0087 4.0852 13.2295 4.23276 13.4154 4.41878L19.5834 10.5858C19.7695 10.7717 19.9172 10.9925 20.018 11.2356C20.1188 11.4786 20.1706 11.7392 20.1706 12.0023C20.1706 12.2654 20.1188 12.5259 20.018 12.769C19.9172 13.012 19.7695 13.2328 19.5834 13.4188L13.4154 19.5858C13.2295 19.7718 13.0087 19.9194 12.7657 20.02C12.5228 20.1207 12.2624 20.1725 11.9994 20.1725C11.7364 20.1725 11.476 20.1207 11.233 20.02C10.99 19.9194 10.7693 19.7718 10.5834 19.5858L4.41537 13.4188C4.22921 13.2328 4.08152 13.012 3.98075 12.769C3.87999 12.5259 3.82812 12.2654 3.82812 12.0023C3.82812 11.7392 3.87999 11.4786 3.98075 11.2356C4.08152 10.9925 4.22921 10.7717 4.41537 10.5858L10.5834 4.41878C10.7693 4.23276 10.99 4.0852 11.233 3.98453C11.476 3.88385 11.7364 3.83203 11.9994 3.83203C12.2624 3.83203 12.5228 3.88385 12.7657 3.98453ZM11.2923 13.7089C11.4798 13.8964 11.7342 14.0018 11.9994 14.0018C12.2646 14.0018 12.5189 13.8964 12.7065 13.7089C12.894 13.5213 12.9994 13.267 12.9994 13.0018V8.00177C12.9994 7.73655 12.894 7.4822 12.7065 7.29466C12.5189 7.10713 12.2646 7.00177 11.9994 7.00177C11.7342 7.00177 11.4798 7.10713 11.2923 7.29466C11.1047 7.4822 10.9994 7.73655 10.9994 8.00177V13.0018C10.9994 13.267 11.1047 13.5213 11.2923 13.7089ZM11.2923 16.7089C11.4798 16.8964 11.7342 17.0018 11.9994 17.0018C12.2646 17.0018 12.5189 16.8964 12.7065 16.7089C12.894 16.5213 12.9994 16.267 12.9994 16.0018C12.9994 15.7366 12.894 15.4822 12.7065 15.2947C12.5189 15.1071 12.2646 15.0018 11.9994 15.0018C11.7342 15.0018 11.4798 15.1071 11.2923 15.2947C11.1047 15.4822 10.9994 15.7366 10.9994 16.0018C10.9994 16.267 11.1047 16.5213 11.2923 16.7089Z" fill="#C40000"/>
</svg>
