<svg width="24" height="24" viewBox="0 0 24 24" fill="none" xmlns="http://www.w3.org/2000/svg">
<rect width="24" height="24" fill="white" fill-opacity="0.01"/>
<path fill-rule="evenodd" clip-rule="evenodd" d="M11.0606 4.96638C11.5766 3.99238 12.4186 3.98838 12.9366 4.96638L20.0606 18.4244C20.5766 19.3984 20.1056 20.1954 19.0036 20.1954H4.99361C3.89161 20.1954 3.41861 19.4024 3.93661 18.4244L11.0606 4.96638ZM11.2915 14.7065C11.479 14.894 11.7334 14.9994 11.9986 14.9994C12.2638 14.9994 12.5182 14.894 12.7057 14.7065C12.8933 14.5189 12.9986 14.2646 12.9986 13.9994V8.99937C12.9986 8.73416 12.8933 8.4798 12.7057 8.29227C12.5182 8.10473 12.2638 7.99937 11.9986 7.99937C11.7334 7.99937 11.479 8.10473 11.2915 8.29227C11.104 8.4798 10.9986 8.73416 10.9986 8.99937V13.9994C10.9986 14.2646 11.104 14.5189 11.2915 14.7065ZM11.2915 17.7065C11.479 17.894 11.7334 17.9994 11.9986 17.9994C12.2638 17.9994 12.5182 17.894 12.7057 17.7065C12.8933 17.5189 12.9986 17.2646 12.9986 16.9994C12.9986 16.7342 12.8933 16.4798 12.7057 16.2923C12.5182 16.1047 12.2638 15.9994 11.9986 15.9994C11.7334 15.9994 11.479 16.1047 11.2915 16.2923C11.104 16.4798 10.9986 16.7342 10.9986 16.9994C10.9986 17.2646 11.104 17.5189 11.2915 17.7065Z" fill="#FFB152"/>
</svg>
