<svg width="32" height="32" viewBox="0 0 32 32" fill="none" xmlns="http://www.w3.org/2000/svg">
<path fill-rule="evenodd" clip-rule="evenodd" d="M16.0013 29.3333C23.3651 29.3333 29.3346 23.3638 29.3346 16C29.3346 8.63616 23.3651 2.66663 16.0013 2.66663C8.63751 2.66663 2.66797 8.63616 2.66797 16C2.66797 23.3638 8.63751 29.3333 16.0013 29.3333ZM22.3175 12.9009C22.8151 12.3581 22.7784 11.5147 22.2356 11.0171C21.6928 10.5195 20.8494 10.5562 20.3518 11.099L14.0013 18.0268L11.6508 15.4626C11.1532 14.9198 10.3098 14.8831 9.767 15.3807C9.22418 15.8783 9.18751 16.7217 9.6851 17.2646L13.0184 20.9009C13.271 21.1764 13.6276 21.3333 14.0013 21.3333C14.375 21.3333 14.7316 21.1764 14.9842 20.9009L22.3175 12.9009Z" fill="#4C81EB"/>
</svg>
