<svg width="16" height="16" viewBox="0 0 16 16" fill="none" xmlns="http://www.w3.org/2000/svg">
<path d="M11.6856 9.90269e-05C13.0408 9.90269e-05 14.3951 9.90269e-05 15.7493 9.90269e-05C15.9447 9.90269e-05 15.9992 0.0494659 15.9981 0.246933C15.992 2.96417 16.0146 5.6814 15.9838 8.39863C15.9724 9.38288 15.7123 10.3322 15.3113 11.2403C14.8683 12.2327 14.2305 13.126 13.4357 13.867C12.9725 14.301 12.4567 14.6752 11.9005 14.9809C11.0967 15.4357 10.2187 15.7442 9.30715 15.8921C8.64581 16.0034 7.97278 16.028 7.30509 15.9651C5.67036 15.8249 4.11855 15.1842 2.86088 14.1303C1.90136 13.3241 1.14387 12.3044 0.64905 11.1529C0.37095 10.51 0.182053 9.83216 0.0876105 9.13811C0.0174633 8.68604 -0.0117897 8.22858 0.000206951 7.77126C0.0305091 6.7381 0.260991 5.72064 0.67887 4.77531C1.10785 3.79108 1.73433 2.90545 2.51949 2.17327C3.58839 1.16437 4.91729 0.473436 6.35702 0.178025C7.00622 0.0486562 7.66738 -0.0109909 8.32926 9.90269e-05C9.45008 0.0114123 10.5678 9.90269e-05 11.6856 9.90269e-05ZM3.20124 8.02221C3.20124 9.41271 3.20124 10.8039 3.20124 12.1958C3.20124 12.6277 3.3709 12.7964 3.80586 12.7974H6.88967C7.34417 12.7974 7.51486 12.6267 7.51486 12.1639C7.51486 9.38151 7.51486 6.59949 7.51486 3.8178C7.51486 3.37864 7.33491 3.20072 6.89789 3.20072H3.8326C3.36884 3.20072 3.20124 3.36733 3.20124 3.82603V8.02221ZM10.6316 7.51826C11.1642 7.51826 11.6969 7.51826 12.2295 7.51826C12.6254 7.51826 12.7951 7.34342 12.7961 6.94745C12.7961 5.89635 12.7961 4.84525 12.7961 3.79415C12.7961 3.38276 12.6141 3.20277 12.1987 3.20277H9.06859C8.66653 3.20277 8.48247 3.38173 8.48144 3.78283C8.48144 4.84079 8.48144 5.89909 8.48144 6.95774C8.48144 7.35473 8.65111 7.51723 9.05625 7.51826C9.58067 7.52134 10.1061 7.52031 10.6316 7.52031V7.51826ZM10.6419 12.7974C11.1663 12.7974 11.6917 12.7974 12.2172 12.7974C12.576 12.7974 12.794 12.5753 12.7951 12.2143C12.7951 11.1858 12.7951 10.1573 12.7951 9.12885C12.7951 8.75037 12.5812 8.53439 12.2059 8.53336C11.1776 8.53336 10.1493 8.53336 9.12103 8.53336C8.74674 8.53645 8.53491 8.75243 8.53491 9.13091C8.53491 10.1512 8.53491 11.1717 8.53491 12.1927C8.53491 12.5856 8.74057 12.7974 9.13645 12.7995L10.6419 12.7974Z" fill="#EEF3F8"/>
<path d="M3.20104 8.02211V3.82902C3.20104 3.37032 3.36865 3.2037 3.8324 3.2037H6.89564C7.33677 3.2037 7.51261 3.3806 7.51261 3.82079C7.51261 6.60316 7.51261 9.38519 7.51261 12.1669C7.51261 12.6297 7.34191 12.8004 6.88742 12.8004H3.80464C3.36968 12.8004 3.20001 12.6307 3.20001 12.1988C3.2007 10.8069 3.20104 9.41467 3.20104 8.02211Z" fill="#324558"/>
<path d="M10.6314 7.52021C10.1059 7.52021 9.58045 7.52021 9.055 7.52021C8.64986 7.52021 8.48122 7.35668 8.48019 6.95969C8.48019 5.90105 8.48019 4.84275 8.48019 3.78479C8.48019 3.38368 8.66528 3.20473 9.06734 3.20473H12.1974C12.6087 3.20473 12.7938 3.38471 12.7948 3.7961C12.7948 4.8472 12.7948 5.89831 12.7948 6.94941C12.7948 7.34537 12.6242 7.51816 12.2283 7.52021C11.6966 7.52227 11.164 7.52021 10.6314 7.52021Z" fill="#324558"/>
<path d="M10.6416 12.7994H9.13316C8.74241 12.7994 8.53264 12.5855 8.53162 12.1926C8.53162 11.1716 8.53162 10.1511 8.53162 9.13081C8.5347 8.75233 8.74653 8.53635 9.12185 8.53635C10.1501 8.53635 11.1784 8.53635 12.2067 8.53635C12.582 8.53635 12.7959 8.75335 12.7959 9.13183C12.7959 10.1603 12.7959 11.1888 12.7959 12.2173C12.7959 12.5783 12.5769 12.7984 12.218 12.8004C11.6915 12.8014 11.1661 12.7994 10.6416 12.7994Z" fill="#B5C1CC"/>
</svg>
