<svg width="60" height="60" viewBox="0 0 60 60" fill="none" xmlns="http://www.w3.org/2000/svg">
<g clip-path="url(#clip0_107_65)">
<path d="M43.8202 8.52485e-05C48.9025 8.52485e-05 53.9809 8.52485e-05 59.0593 8.52485e-05C59.7919 8.52485e-05 59.9963 0.185211 59.9925 0.925714C59.9693 11.1153 60.0542 21.305 59.9385 31.4946C59.8961 35.1855 58.9205 38.7453 57.4166 42.1509C55.7555 45.8723 53.3637 49.2221 50.3832 52.0011C48.6463 53.6286 46.7122 55.0318 44.6261 56.178C41.6121 57.8834 38.3194 59.0404 34.9012 59.5951C32.4212 60.0125 29.8973 60.1046 27.3935 59.8689C21.2633 59.343 15.444 56.9405 10.7277 52.9884C7.12949 49.9652 4.28892 46.1413 2.43334 41.8231C1.39046 39.4123 0.682097 36.8703 0.327937 34.2676C0.0648845 32.5724 -0.0448141 30.8569 0.000173345 29.1419C0.113806 25.2676 0.978114 21.4521 2.54516 17.9071C4.15383 14.2163 6.50312 10.8951 9.44747 8.14947C13.4559 4.3661 18.4393 1.7751 23.8382 0.667309C26.2727 0.182175 28.7521 -0.041502 31.2341 8.52485e-05C35.4372 0.0425099 39.6287 8.52485e-05 43.8202 8.52485e-05ZM12.004 30.083C12.004 35.2974 12.004 40.5143 12.004 45.7338C12.004 47.3537 12.6403 47.9862 14.2714 47.9901H25.8356C27.54 47.9901 28.1801 47.3498 28.1801 45.6143C28.1801 35.1804 28.1801 24.7478 28.1801 14.3165C28.1801 12.6696 27.5053 12.0024 25.8665 12.0024H14.3716C12.6326 12.0024 12.004 12.6272 12.004 14.3473V30.083ZM39.8678 28.1932C41.8652 28.1932 43.8626 28.1932 45.8601 28.1932C47.3446 28.1932 47.9809 27.5375 47.9848 26.0527C47.9848 22.111 47.9848 18.1694 47.9848 14.2278C47.9848 12.685 47.3022 12.0101 45.7444 12.0101H34.0066C32.4989 12.0101 31.8087 12.6812 31.8048 14.1853C31.8048 18.1527 31.8048 22.1213 31.8048 26.0912C31.8048 27.5799 32.441 28.1893 33.9603 28.1932C35.9269 28.2047 37.8973 28.2009 39.8678 28.2009V28.1932ZM39.9063 47.9901C41.8729 47.9901 43.8434 47.9901 45.8138 47.9901C47.1596 47.9901 47.977 47.157 47.9809 45.8033C47.9809 41.9465 47.9809 38.0897 47.9809 34.2329C47.9809 32.8136 47.1788 32.0037 45.7714 31.9998C41.9153 31.9998 38.0593 31.9998 34.2033 31.9998C32.7997 32.0114 32.0053 32.8213 32.0053 34.2406C32.0053 38.0665 32.0053 41.8938 32.0053 45.7223C32.0053 47.1956 32.7765 47.9901 34.2611 47.9978L39.9063 47.9901Z" fill="#EEF3F8"/>
<path d="M12.0039 30.0829V14.3588C12.0039 12.6387 12.6324 12.0139 14.3715 12.0139H25.8586C27.5129 12.0139 28.1722 12.6773 28.1722 14.328C28.1722 24.7618 28.1722 35.1944 28.1722 45.6258C28.1722 47.3613 27.5321 48.0015 25.8278 48.0015H14.2674C12.6362 48.0015 12 47.3652 12 45.7453C12.0026 40.5258 12.0039 35.305 12.0039 30.0829Z" fill="#324558"/>
<path d="M39.8676 28.2008C37.8972 28.2008 35.9267 28.2008 33.9563 28.2008C32.437 28.2008 31.8046 27.5876 31.8008 26.0989C31.8008 22.1289 31.8008 18.1603 31.8008 14.193C31.8008 12.6888 32.4949 12.0177 34.0026 12.0177H45.7404C47.2828 12.0177 47.9769 12.6927 47.9807 14.2354C47.9807 18.177 47.9807 22.1187 47.9807 26.0603C47.9807 27.5452 47.3406 28.1931 45.856 28.2008C43.8625 28.2085 41.865 28.2008 39.8676 28.2008Z" fill="#324558"/>
<path d="M39.9062 47.9977H34.2494C32.7841 47.9977 31.9974 47.1955 31.9936 45.7222C31.9936 41.8937 31.9936 38.0665 31.9936 34.2405C32.0052 32.8212 32.7995 32.0113 34.207 32.0113C38.063 32.0113 41.919 32.0113 45.7751 32.0113C47.1825 32.0113 47.9846 32.8251 47.9846 34.2444C47.9846 38.1012 47.9846 41.958 47.9846 45.8148C47.9846 47.1685 47.1633 47.9938 45.8175 48.0015C43.8432 48.0054 41.8728 47.9977 39.9062 47.9977Z" fill="#B5C1CC"/>
</g>
<defs>
<clipPath id="clip0_107_65">
<rect width="60" height="60" fill="white"/>
</clipPath>
</defs>
</svg>
