<svg width="16" height="16" viewBox="0 0 16 16" fill="none" xmlns="http://www.w3.org/2000/svg">
<path d="M15.9883 5.82962C15.9883 7.93016 16.0075 10.0307 15.9883 12.1334C15.9883 13.1836 15.3479 13.8411 14.3019 13.8411C10.1036 13.8511 5.90541 13.8497 1.70717 13.8369C0.665438 13.8369 0.0271637 13.1836 0.0207596 12.1291C0.0207596 10.0264 0.0207596 7.92589 0.0314331 5.82535L15.9883 5.82962Z" fill="#B5C1CC"/>
<path d="M15.9883 5.82963H0.0228936C0.0228936 4.95014 0.0228936 4.07064 0.0015466 3.19328C-0.0133963 2.79623 0.0741263 2.5849 0.520278 2.64467C0.733482 2.65973 0.947483 2.65973 1.16069 2.64467C2.32196 2.64467 2.35185 2.64467 2.39881 1.48126C2.4287 0.725575 2.9581 1.09701 3.26763 1.05432C3.57716 1.01162 4.01691 0.840849 4.02545 1.50474C4.03826 2.63613 4.07882 2.63613 5.21021 2.63613C7.23603 2.63613 9.26613 2.60838 11.2856 2.65107C11.8939 2.66388 12.0861 2.49524 12.0199 1.90179C11.9879 1.64776 11.8534 1.19521 12.1245 1.11196C12.5553 0.980866 13.0147 0.97642 13.448 1.09915C13.7725 1.20375 13.6081 1.67551 13.5804 1.96583C13.527 2.5358 13.7276 2.67242 14.2848 2.66388C15.9926 2.6404 15.9926 2.66388 15.9926 4.39085C16.0096 4.87116 15.9926 5.34933 15.9883 5.82963Z" fill="#324558"/>
</svg>
