<svg width="60" height="60" viewBox="0 0 60 60" fill="none" xmlns="http://www.w3.org/2000/svg">
<path d="M43.7839 0.00820618C48.8872 0.00820618 53.9954 0.00820618 59.0986 0.00820618C59.7912 0.00820618 59.9876 0.204802 59.9827 0.897804C59.9827 11.1159 60.0466 21.334 59.9287 31.5521C59.8128 35.2378 58.9488 38.8615 57.3894 42.2027C55.7361 45.8964 53.3633 49.2232 50.4098 51.9882C48.6958 53.5983 46.7905 54.9915 44.7368 56.1364C39.5092 59.1042 33.5037 60.412 27.5163 59.8865C21.3539 59.38 15.4995 56.9763 10.7576 53.0056C8.13916 50.8298 5.92018 48.2135 4.20048 45.2745C1.3106 40.3506 -0.140957 34.7143 0.0107892 29.0061C0.15502 25.1635 1.0302 21.3836 2.58944 17.869C4.50692 13.5225 7.43105 9.69531 11.1199 6.704C14.8088 3.7127 19.1564 1.64323 23.8031 0.666804C26.3197 0.174093 28.882 -0.0467058 31.4457 0.00820618C35.5666 0.0475254 39.6777 0.00820618 43.7839 0.00820618ZM28.0075 31.9895C27.703 31.9895 27.3985 32.0141 27.0939 32.0141H14.2547C12.4963 32.0141 12.0101 32.5056 12.0101 34.2209V41.7161C12.0101 43.5493 12.4767 44.0113 14.3333 44.0113L27.9879 44.0408C27.9879 45.1221 28.0272 46.2034 27.9879 47.2798C27.9633 47.8794 28.1794 48.0514 28.7492 48.0219C29.5793 47.9826 30.4143 47.9826 31.2443 48.0219C31.8092 48.0514 32.0302 47.8794 32.0056 47.2798C31.9664 46.2034 32.0056 45.1221 32.0056 44.0408L45.8223 44.0113C47.4628 44.0113 47.9785 43.5199 47.9785 41.893C47.9785 39.3373 47.9785 36.7832 47.9785 34.2307C47.9785 32.5203 47.4873 32.019 45.7388 32.0141L31.986 31.9895V28.0232H45.8026C47.4431 28.0232 47.9589 27.5071 47.9589 25.8999C47.9589 23.3442 47.9589 20.7901 47.9589 18.2376C47.9589 16.5272 47.4677 16.0259 45.7191 16.0259L31.9664 15.9964C31.9664 14.92 31.9271 13.8338 31.9664 12.7575C31.9664 12.1579 31.7699 11.9858 31.205 12.0153C30.375 12.0546 29.54 12.0546 28.7099 12.0153C28.1401 11.9858 27.924 12.1579 27.9486 12.7575C27.9879 13.8338 27.9486 14.92 27.9486 15.9964C27.6441 15.9964 27.3395 15.9964 27.035 15.9964H14.2547C12.4963 15.9964 12.0101 16.4879 12.0101 18.1983V25.723C12.0101 27.5562 12.4767 28.0133 14.3333 28.0183L28.0075 28.0232V31.9895Z" fill="#EEF3F8"/>
<path d="M28.0075 28.0232H14.353C12.4964 28.0232 12.0298 27.5612 12.0298 25.7279V18.2228C12.0298 16.5026 12.5209 16.021 14.2744 16.021H27.0743C27.3788 16.021 27.6834 16.021 27.9879 16.021H32.0057L45.7584 16.0505C47.4874 16.0505 47.9982 16.5419 47.9982 18.2622C47.9982 20.8179 47.9982 23.372 47.9982 25.9245C47.9982 27.5317 47.507 28.0428 45.8419 28.0477L32.0057 28.0232H28.0075ZM16.0868 18.0656C15.4287 18.0656 14.5593 17.81 14.1663 18.1295C13.7734 18.4489 14.0288 19.427 14.019 20.0954C13.9944 22.0073 14.019 22.0122 15.9247 22.0073C16.5878 22.0073 17.4572 22.2285 17.8501 21.8992C18.2431 21.5699 17.9877 20.6017 17.9975 19.9332C18.022 18.0213 18.0073 18.0213 16.0868 18.0656ZM21.9809 21.9975C23.9947 21.9975 23.9947 21.9975 23.9947 20.0315C23.9947 18.0656 23.9947 18.0164 22.03 18.0164C20.0653 18.0164 20.0162 18.0164 20.0162 19.9824C20.0162 21.9483 20.0064 22.0171 21.9858 22.0171L21.9809 21.9975Z" fill="#324558"/>
<path d="M32.0057 31.9895L45.7584 32.0141C47.4874 32.0141 47.9982 32.5056 47.9982 34.2307C47.9982 36.7799 47.9982 39.334 47.9982 41.893C47.9982 43.5002 47.507 44.0113 45.8419 44.0113L32.0253 44.0408H28.0075L14.353 44.0113C12.4964 44.0113 12.0298 43.5493 12.0298 41.7161V34.2209C12.0298 32.4957 12.5209 32.019 14.2744 32.0141H27.0743C27.3788 32.0141 27.6834 32.0141 27.9879 31.9895H32.0057ZM16.0033 38.0152C18.0073 38.0152 18.0073 38.0152 18.0073 36.0492C18.0073 34.0832 18.0073 34.039 16.0426 34.039C14.0779 34.039 14.0337 34.039 14.0337 36.0345C14.0337 38.0299 14.0092 38.0152 16.0033 38.0152ZM22.0153 34.0144C20.0064 34.0144 20.0064 34.0144 20.0064 35.9804C20.0064 37.9464 20.0064 37.9955 21.971 37.9955C23.9357 37.9955 23.9799 37.9955 23.9799 36.0295C23.9799 34.0636 23.9996 34.0144 22.0153 34.0144Z" fill="#324558"/>
<path d="M32.0056 15.9915H28.0075C28.0075 14.9151 28.0468 13.8289 28.0075 12.7526C27.983 12.1529 28.1991 11.9809 28.7688 12.0104C29.5989 12.0497 30.4339 12.0497 31.264 12.0104C31.8288 11.9809 32.0498 12.1529 32.0253 12.7526C31.9663 13.8289 32.0007 14.9151 32.0056 15.9915Z" fill="#B5C1CC"/>
<path d="M32.0056 31.9895H28.0075V28.0232H32.0253L32.0056 31.9895Z" fill="#B5C1CC"/>
<path d="M28.0075 44.0408H32.0253C32.0253 45.1221 31.986 46.2034 32.0253 47.2798C32.0253 47.8794 31.8288 48.0514 31.264 48.0219C30.4339 47.9826 29.5989 47.9826 28.7688 48.0219C28.1991 48.0514 27.983 47.8794 28.0075 47.2798C28.0075 46.2083 28.0075 45.1221 28.0075 44.0408Z" fill="#B5C1CC"/>
<path d="M16.0868 18.0656C18.0073 18.0213 18.022 18.0213 17.9975 19.9332C17.9975 20.6115 18.3118 21.5158 17.8501 21.8992C17.3884 22.2826 16.5878 22.0024 15.9247 22.0073C14.0092 22.0073 13.9944 22.0073 14.019 20.0954C14.019 19.4172 13.7046 18.5079 14.1663 18.1295C14.628 17.751 15.4287 18.0656 16.0868 18.0656Z" fill="#EEF3F8"/>
<path d="M21.9858 22.0171C20.0211 22.0171 20.0211 22.0171 20.0211 20.002C20.0211 17.9869 20.0211 18.0361 22.0349 18.0361C24.0487 18.0361 23.9996 18.0361 23.9996 20.0512C23.9996 22.0663 23.9996 22.0171 21.9858 22.0171Z" fill="#EEF3F8"/>
<path d="M16.0033 38.0152C14.0092 38.0152 14.0092 38.0152 14.0092 36.0099C14.0092 34.0046 14.0092 34.0144 16.018 34.0144C18.0269 34.0144 17.9827 34.0144 17.9827 36.0246C17.9827 38.0348 18.0073 38.0152 16.0033 38.0152Z" fill="#EEF3F8"/>
<path d="M22.0153 34.0144C23.9799 34.0144 23.9799 34.0144 23.9799 36.0295C23.9799 38.0447 23.9799 37.9955 21.971 37.9955C19.9622 37.9955 20.0064 37.9955 20.0064 35.9804C20.0064 33.9653 20.0064 34.0144 22.0153 34.0144Z" fill="#EEF3F8"/>
</svg>
