<svg width="40" height="40" viewBox="0 0 40 40" fill="none" xmlns="http://www.w3.org/2000/svg">
<path d="M5.01435 20.0302C5.01435 17.4139 5.01435 14.8025 5.01435 12.1911C4.9805 11.9754 5.01603 11.7545 5.11579 11.5603C5.21555 11.3661 5.3744 11.2086 5.56942 11.1105C10.3068 8.5058 15.0258 5.88107 19.7264 3.23633C19.9528 3.08234 20.2203 3 20.4941 3C20.7678 3 21.0353 3.08234 21.2617 3.23633C25.969 5.90442 30.6913 8.52914 35.4287 11.1105C35.6132 11.1919 35.7673 11.3296 35.8688 11.5039C35.9703 11.6783 36.0141 11.8803 35.9938 12.081C35.9938 17.4005 35.9938 22.7217 35.9938 28.0445C36.0157 28.2301 35.9794 28.418 35.8898 28.5821C35.8002 28.7461 35.6617 28.8782 35.4937 28.96C30.683 31.6047 25.8757 34.2728 21.0716 36.9642C20.9068 37.075 20.7127 37.1341 20.5141 37.1341C20.3155 37.1341 20.1214 37.075 19.9565 36.9642C15.1625 34.2961 10.3568 31.6281 5.53942 28.96C5.35701 28.8703 5.20755 28.7253 5.11237 28.5456C5.01719 28.3659 4.98113 28.1608 5.00934 27.9594C5.02435 25.318 5.01435 22.6716 5.01435 20.0302ZM8.45484 20.0653C8.45484 21.9413 8.49484 23.8223 8.45484 25.6982C8.41902 25.9907 8.47978 26.2868 8.62784 26.5415C8.77591 26.7962 9.00316 26.9955 9.27495 27.109C12.8088 29.0467 16.336 31.0044 19.8565 32.9821C20.0509 33.1103 20.2787 33.1787 20.5116 33.1787C20.7444 33.1787 20.9722 33.1103 21.1667 32.9821C24.7938 30.9477 28.4294 28.9316 32.0732 26.9339C32.2413 26.8536 32.38 26.7225 32.4697 26.5592C32.5594 26.3958 32.5957 26.2084 32.5733 26.0234C32.5733 22.0413 32.5733 18.0609 32.5733 14.0821C32.5952 13.8964 32.5589 13.7086 32.4693 13.5445C32.3797 13.3805 32.2412 13.2484 32.0732 13.1666C28.406 11.1422 24.7388 9.10945 21.0716 7.06837C20.915 6.9652 20.7326 6.90815 20.5451 6.90373C20.3577 6.8993 20.1728 6.94769 20.0115 7.04335C16.3443 9.09444 12.6771 11.1339 9.00992 13.1616C8.82629 13.2444 8.6739 13.3836 8.57495 13.5591C8.476 13.7346 8.43567 13.9371 8.45984 14.1371C8.46984 16.1132 8.45484 18.0892 8.45484 20.0653Z" fill="#334658"/>
<path d="M29.6779 20.0702C29.6779 21.536 29.6779 23.0018 29.6779 24.4626C29.7038 24.681 29.6609 24.9021 29.5551 25.0949C29.4493 25.2878 29.2859 25.4427 29.0878 25.5381C26.4474 26.9922 23.8137 28.4614 21.1867 29.9455C20.4966 30.3307 20.4716 29.9455 20.4716 29.4452C20.4716 27.0539 20.4716 24.6677 20.4716 22.2814C20.4945 22.05 20.4415 21.8175 20.3206 21.619C20.1997 21.4204 20.0175 21.2666 19.8015 21.1808C17.1711 19.7701 14.5657 18.3093 11.9453 16.8785C11.4453 16.5884 11.0452 16.2932 11.0702 15.5729C11.0952 14.8525 11.4903 14.7274 11.9403 14.4773C14.5057 13.0765 17.0711 11.6808 19.6064 10.235C19.8223 10.0783 20.079 9.98782 20.3454 9.9745C20.6118 9.96117 20.8762 10.0256 21.1067 10.16C23.787 11.6608 26.4724 13.1616 29.1678 14.6624C29.3398 14.7461 29.4809 14.8823 29.5707 15.0513C29.6606 15.2202 29.6946 15.4134 29.6679 15.6029C29.6779 17.0787 29.6779 18.5744 29.6779 20.0702Z" fill="#B5C1CC"/>
<path d="M11.1452 19.3349L17.5561 22.8718C17.6554 22.9128 17.7406 22.9821 17.801 23.071C17.8614 23.1599 17.8945 23.2645 17.8961 23.372V28.955L11.3952 25.3581C11.1202 25.208 11.1352 24.9529 11.1352 24.6927C11.1752 22.9768 11.1452 21.2459 11.1452 19.3349Z" fill="#35485A"/>
</svg>
