<svg width="40" height="40" viewBox="0 0 40 40" fill="none" xmlns="http://www.w3.org/2000/svg">
<path d="M34.9776 13.2119C34.9776 15.4863 34.9776 17.7607 34.9776 20.0351C35.009 23.3468 33.9042 26.5693 31.8475 29.1645C29.423 32.2377 26.293 34.1606 22.3877 34.7851C18.6787 35.429 14.8645 34.613 11.7431 32.5079C9.31576 30.9268 7.41116 28.6617 6.2699 25.9984C5.31008 23.854 4.88368 21.5089 5.02717 19.1637C5.18019 16.0479 6.32701 13.0632 8.2995 10.6471C10.1142 8.36531 12.5553 6.66323 15.3233 5.74974C16.6284 5.29253 17.9971 5.04261 19.3796 5.00904C24.3156 4.9887 29.2517 5.00904 34.1878 5.00904C34.9747 5.00904 34.9747 5.00904 34.9747 5.77297L34.9776 13.2119ZM11.0027 19.9886C11.0027 21.5223 11.0027 23.0589 11.0027 24.5954C10.9863 24.7124 11.0073 24.8315 11.0626 24.9358C11.1178 25.0401 11.2046 25.1243 11.3105 25.1764C14.1076 26.7256 16.898 28.2747 19.6815 29.8239C19.7773 29.8882 19.89 29.9226 20.0053 29.9226C20.1206 29.9226 20.2333 29.8882 20.329 29.8239C23.1165 28.2747 25.9078 26.7256 28.7029 25.1764C28.8005 25.1289 28.8809 25.0522 28.9329 24.957C28.9849 24.8617 29.006 24.7526 28.9933 24.6448C28.9933 21.5465 28.9933 18.4568 28.9933 15.3759C29.0051 15.2594 28.9797 15.1421 28.9207 15.0408C28.8618 14.9396 28.7723 14.8597 28.6652 14.8124C25.9145 13.3 23.1716 11.7751 20.4365 10.2375C20.305 10.1481 20.1497 10.1003 19.9908 10.1003C19.8318 10.1003 19.6765 10.1481 19.5451 10.2375C16.8157 11.7731 14.0737 13.2971 11.3192 14.8095C11.206 14.8664 11.1138 14.9579 11.0558 15.0706C10.9979 15.1834 10.9773 15.3117 10.9969 15.4369C11.0085 16.9532 11.0027 18.4694 11.0027 19.9886Z" fill="#EEF3F8"/>
<path d="M11.0027 19.9886C11.0027 18.4694 11.0027 16.9532 11.0027 15.4369C10.9831 15.3117 11.0037 15.1834 11.0616 15.0707C11.1195 14.9579 11.2118 14.8664 11.325 14.8095C14.0757 13.2971 16.8157 11.7731 19.545 10.2375C19.6765 10.1481 19.8318 10.1003 19.9907 10.1003C20.1497 10.1003 20.305 10.1481 20.4364 10.2375C23.1697 11.7867 25.9116 13.3107 28.6623 14.8095C28.7694 14.8568 28.8589 14.9367 28.9178 15.0379C28.9768 15.1392 29.0022 15.2565 28.9904 15.373C28.9904 18.4617 28.9904 21.5513 28.9904 24.6419C29.0031 24.7497 28.982 24.8588 28.93 24.9541C28.878 25.0493 28.7976 25.126 28.7 25.1735C25.9068 26.7091 23.1155 28.2583 20.3261 29.821C20.2304 29.8853 20.1177 29.9197 20.0024 29.9197C19.887 29.9197 19.7743 29.8853 19.6786 29.821C16.895 28.2718 14.1047 26.7227 11.3076 25.1735C11.2017 25.1214 11.1149 25.0372 11.0596 24.9329C11.0044 24.8286 10.9834 24.7095 10.9998 24.5925C11.0085 23.0589 11.0027 21.5223 11.0027 19.9886ZM13.0004 20.0089C13.0004 21.0982 13.0236 22.1904 13.0004 23.2796C12.9796 23.4494 13.0149 23.6214 13.1008 23.7693C13.1868 23.9171 13.3187 24.0329 13.4766 24.0987C15.5284 25.2238 17.5764 26.3605 19.6205 27.5089C19.7334 27.5833 19.8657 27.623 20.0009 27.623C20.1361 27.623 20.2684 27.5833 20.3813 27.5089C22.4873 26.3276 24.5982 25.157 26.714 23.9971C26.8116 23.9504 26.8921 23.8743 26.9442 23.7795C26.9963 23.6847 27.0173 23.5759 27.0043 23.4684C27.0043 21.1563 27.0043 18.8451 27.0043 16.5349C27.0171 16.4271 26.996 16.318 26.9439 16.2228C26.8919 16.1275 26.8115 16.0508 26.714 16.0033C24.5847 14.8279 22.4554 13.6476 20.3261 12.4625C20.2352 12.4026 20.1292 12.3695 20.0204 12.3669C19.9116 12.3643 19.8042 12.3924 19.7105 12.448C17.5813 13.6389 15.452 14.8231 13.3227 16.0004C13.2161 16.0485 13.1276 16.1294 13.0701 16.2312C13.0127 16.3331 12.9892 16.4507 13.0033 16.5669C13.0091 17.7142 13.0004 18.8616 13.0004 20.0089Z" fill="#334658"/>
<path d="M25.3232 20.0118C25.3232 20.8629 25.3232 21.714 25.3232 22.5622C25.3382 22.689 25.3133 22.8174 25.2519 22.9293C25.1904 23.0413 25.0956 23.1313 24.9805 23.1867C23.4475 24.031 21.9182 24.884 20.3929 25.7457C19.9922 25.9694 19.9777 25.7457 19.9777 25.4552C19.9777 24.0668 19.9777 22.6812 19.9777 21.2957C19.991 21.1614 19.9602 21.0264 19.89 20.9111C19.8198 20.7958 19.714 20.7065 19.5886 20.6567C18.0613 19.8375 16.5486 18.9894 15.0271 18.1586C14.7367 17.9902 14.5044 17.8188 14.519 17.4005C14.5335 16.9822 14.7629 16.9096 15.0242 16.7644C16.5137 15.951 18.0032 15.1406 19.4754 14.3012C19.6007 14.2102 19.7498 14.1576 19.9044 14.1499C20.0591 14.1422 20.2127 14.1796 20.3464 14.2576C21.9028 15.129 23.462 16.0004 25.027 16.8718C25.1269 16.9205 25.2088 16.9995 25.2609 17.0976C25.3131 17.1958 25.3329 17.3079 25.3174 17.4179C25.3232 18.2748 25.3232 19.1433 25.3232 20.0118Z" fill="#B5C1CC"/>
<path d="M14.5625 19.5848L18.2849 21.6385C18.3425 21.6623 18.392 21.7025 18.4271 21.7541C18.4621 21.8057 18.4814 21.8665 18.4823 21.9289V25.1706L14.7077 23.0821C14.548 22.995 14.5567 22.8468 14.5567 22.6958C14.5799 21.6995 14.5625 20.6944 14.5625 19.5848Z" fill="#35485A"/>
</svg>
