<svg width="16" height="17" viewBox="0 0 16 17" fill="none" xmlns="http://www.w3.org/2000/svg">
<path d="M0.00706855 8.39155C0.00706855 7.10234 0.00706855 5.81559 0.00706855 4.52885C-0.00960698 4.42256 0.00789661 4.31372 0.0570547 4.21802C0.106213 4.12232 0.184485 4.04472 0.280581 3.9964C2.61488 2.71295 4.94014 1.41963 7.25637 0.116452C7.36792 0.0405735 7.4997 0 7.6346 0C7.7695 0 7.90128 0.0405735 8.01284 0.116452C10.3323 1.43113 12.6593 2.72445 14.9936 3.9964C15.0845 4.0365 15.1604 4.10436 15.2104 4.19026C15.2604 4.27617 15.282 4.37571 15.272 4.47462C15.272 7.09576 15.272 9.71773 15.272 12.3405C15.2828 12.432 15.2649 12.5246 15.2207 12.6054C15.1766 12.6862 15.1084 12.7513 15.0256 12.7916C12.6551 14.0948 10.2864 15.4095 7.9192 16.7357C7.83796 16.7902 7.74232 16.8194 7.64446 16.8194C7.5466 16.8194 7.45096 16.7902 7.36971 16.7357C5.00749 15.421 2.63952 14.1063 0.265796 12.7916C0.175912 12.7474 0.10227 12.676 0.0553693 12.5874C0.00846816 12.4989 -0.00929782 12.3978 0.00460443 12.2986C0.0119966 10.9971 0.00706855 9.69308 0.00706855 8.39155ZM1.70235 8.4088C1.70235 9.33319 1.72206 10.26 1.70235 11.1844C1.6847 11.3285 1.71464 11.4744 1.7876 11.5999C1.86055 11.7254 1.97253 11.8236 2.10646 11.8796C3.84774 12.8343 5.58573 13.799 7.32043 14.7735C7.41624 14.8367 7.52847 14.8704 7.64323 14.8704C7.75798 14.8704 7.87021 14.8367 7.96602 14.7735C9.75329 13.7711 11.5447 12.7777 13.3402 11.7933C13.423 11.7537 13.4913 11.6891 13.5355 11.6086C13.5797 11.5282 13.5976 11.4358 13.5866 11.3446C13.5866 9.38249 13.5866 7.42115 13.5866 5.46063C13.5974 5.36915 13.5795 5.27658 13.5353 5.19575C13.4912 5.11491 13.423 5.04983 13.3402 5.00953C11.5332 4.01202 9.72619 3.01039 7.9192 2.00466C7.84204 1.95383 7.75214 1.92572 7.65978 1.92354C7.56741 1.92136 7.47629 1.9452 7.39682 1.99234C5.58983 3.003 3.78285 4.00791 1.97586 5.00707C1.88538 5.04784 1.81029 5.11647 1.76153 5.20293C1.71278 5.2894 1.69291 5.38919 1.70481 5.48775C1.70974 6.46143 1.70235 7.43512 1.70235 8.4088Z" fill="#334658"/>
<path d="M12.1599 8.41127C12.1599 9.13352 12.1599 9.85577 12.1599 10.5756C12.1726 10.6832 12.1515 10.7921 12.0994 10.8872C12.0472 10.9822 11.9667 11.0585 11.8691 11.1055C10.5681 11.822 9.27033 12.5459 7.97587 13.2772C7.63583 13.467 7.62351 13.2772 7.62351 13.0307C7.62351 11.8524 7.62351 10.6766 7.62351 9.50081C7.6348 9.38681 7.60869 9.27223 7.54912 9.17439C7.48955 9.07655 7.39976 9.00077 7.29333 8.9585C5.99722 8.26337 4.71344 7.54358 3.42227 6.83858C3.17586 6.69561 2.97874 6.55017 2.99106 6.19521C3.00338 5.84024 3.19804 5.77862 3.4198 5.65537C4.68387 4.96516 5.94794 4.27742 7.19723 3.56503C7.30359 3.48782 7.4301 3.44322 7.56135 3.43665C7.69259 3.43009 7.82292 3.46184 7.93645 3.52805C9.25719 4.26756 10.5804 5.00707 11.9085 5.74657C11.9933 5.78785 12.0628 5.85494 12.1071 5.9382C12.1513 6.02146 12.1681 6.11662 12.1549 6.21C12.1599 6.93718 12.1599 7.67422 12.1599 8.41127Z" fill="#B5C1CC"/>
<path d="M3.02801 8.0489L6.18695 9.79168C6.2359 9.8119 6.27785 9.84602 6.30763 9.88983C6.3374 9.93364 6.3537 9.98521 6.35451 10.0382V12.7892L3.15121 11.0168C3.01569 10.9428 3.02308 10.8171 3.02308 10.6889C3.04279 9.84344 3.02801 8.99054 3.02801 8.0489Z" fill="#35485A"/>
</svg>
