<svg width="37" height="36" viewBox="0 0 37 36" fill="none" xmlns="http://www.w3.org/2000/svg">
<path d="M36 18.0262C36 23.0902 36 28.1542 36 33.2182C36 34.4651 34.4585 36 33.2116 36H2.92582C1.61673 36 0 34.3636 0 33.0873V2.90291C0 1.61673 1.63636 0 2.94545 0H33.1298C34.4389 0 36.0164 1.59709 36.0164 2.94545L36 18.0262ZM18.0655 32.0007H29.6607C30.2804 31.9905 30.8717 31.7389 31.3087 31.2995C31.7457 30.86 31.994 30.2674 32.0007 29.6476V6.35891C31.9803 5.73958 31.7251 5.1512 31.287 4.71303C30.8488 4.27486 30.2604 4.0197 29.6411 3.99927H6.35236C5.73258 4.01987 5.14401 4.27617 4.70674 4.71588C4.26946 5.15559 4.01643 5.74557 3.99927 6.36545V29.6509C4.01362 30.2736 4.26892 30.8664 4.71145 31.3046C5.15398 31.7429 5.74924 31.9924 6.372 32.0007H18.0655Z" fill="#324558"/>
<path d="M18.0654 32.0007H6.37199C5.74923 31.9924 5.15397 31.7429 4.71144 31.3046C4.26891 30.8664 4.01362 30.2736 3.99927 29.6509V6.36545C4.01643 5.74557 4.26946 5.15559 4.70673 4.71588C5.14401 4.27617 5.73258 4.01987 6.35236 3.99927H29.6411C30.2604 4.0197 30.8488 4.27486 31.287 4.71303C31.7251 5.1512 31.9803 5.73958 32.0007 6.35891V29.6476C31.994 30.2674 31.7457 30.86 31.3087 31.2995C30.8717 31.7389 30.2804 31.9905 29.6607 32.0007H18.0654ZM21.3938 16.4913C21.3938 16.956 21.3938 17.4207 21.3938 17.8855C21.4364 19.2665 22.1596 19.9767 23.5865 20.0553C25.1051 20.1371 25.9593 19.5251 26.0771 18.1244C26.1687 17.0673 26.1098 16.0004 26.1294 14.9367C26.1294 14.5505 26.0444 14.2822 25.5829 14.3084C25.1214 14.3345 25.2 14.6782 25.2 14.9596C25.2 15.9251 25.2196 16.8873 25.2 17.8495C25.1804 18.8116 24.7058 19.26 23.7862 19.2764C22.8665 19.2927 22.3527 18.8607 22.3429 17.9084C22.3331 16.956 22.3167 15.9153 22.3102 14.9204C22.3102 14.5931 22.2873 14.3182 21.8553 14.3051C21.4233 14.292 21.3971 14.5735 21.4004 14.8975C21.4004 15.4276 21.3938 15.9611 21.3938 16.4913ZM15.1265 18.0949C14.5604 17.9116 14.3542 18.1767 14.1054 18.5531C13.9442 18.7748 13.7328 18.9553 13.4885 19.0797C13.2442 19.2042 12.974 19.269 12.6998 19.269C12.4256 19.269 12.1554 19.2042 11.9111 19.0797C11.6668 18.9553 11.4554 18.7748 11.2942 18.5531C10.7542 17.7382 10.9473 15.9807 11.6378 15.3982C12.4004 14.7436 13.1825 14.8778 14.2004 15.8433C14.2859 15.9446 14.4062 16.0101 14.5376 16.0271C14.6691 16.0441 14.8021 16.0112 14.9105 15.9349C15.1462 15.7745 14.9956 15.4996 14.8942 15.3065C14.6554 14.8603 14.2512 14.5255 13.7684 14.3738C12.7505 14.0465 11.7556 14.0793 10.9571 14.8255C10.0211 15.6993 9.89018 16.8447 10.1618 18.0524C10.4629 19.3615 11.3629 20.0716 12.744 20.0684C14.0334 20.0684 14.7993 19.44 15.1265 18.0949ZM16.1705 17.1556V19.5545C16.1705 19.8262 16.2589 19.9931 16.5698 19.9964C16.8807 19.9996 17.0771 19.908 17.0116 19.6135C16.6451 17.9051 17.5713 17.5975 18.9753 17.7447C19.1767 17.7378 19.3743 17.6876 19.5545 17.5975C20.2942 17.3356 20.5364 16.7138 20.5364 16.0233C20.5364 15.3327 20.2353 14.5931 19.4204 14.4491C18.4025 14.2691 17.2342 14.0531 16.38 14.4982C15.7909 14.8058 16.2491 15.9775 16.1673 16.7564C16.1574 16.8873 16.1705 17.0182 16.1705 17.1556ZM6.16909 7.91345C8.16872 8.12945 8.26036 8.03127 7.84799 6.22473L6.16909 7.91345ZM29.5691 7.91345L28.0669 6.35891C27.8771 8.13927 27.8902 8.15236 29.5691 7.92654V7.91345ZM7.96909 29.7131C8.06072 27.7495 8.04763 27.7495 6.31309 28.1193L7.96909 29.7131ZM29.7458 28.0178C27.7822 27.9327 27.7822 27.936 28.1094 29.5887L29.7458 28.0178Z" fill="#B5C1CC"/>
<path d="M21.3938 16.4913C21.3938 15.9611 21.3938 15.4276 21.3938 14.8975C21.3938 14.5702 21.3938 14.292 21.8487 14.3051C22.3036 14.3182 22.3004 14.5996 22.3036 14.9204C22.3036 15.9022 22.3265 16.9135 22.3364 17.9084C22.3462 18.9033 22.8436 19.3091 23.7764 19.2764C24.7091 19.2436 25.1575 18.828 25.1902 17.8495C25.2229 16.8709 25.1902 15.9251 25.1902 14.9596C25.1902 14.6782 25.0985 14.3313 25.5731 14.3051C26.0476 14.2789 26.1262 14.5473 26.1196 14.9335C26.1 15.9971 26.1589 17.064 26.0673 18.1211C25.9495 19.5218 25.0855 20.1338 23.5767 20.052C22.1498 19.9735 21.4265 19.2633 21.384 17.8822C21.384 17.4207 21.3938 16.956 21.3938 16.4913Z" fill="#324558"/>
<path d="M15.1265 18.0949C14.7993 19.44 14.0335 20.0585 12.744 20.0749C11.3629 20.0749 10.4531 19.3844 10.1618 18.0589C9.89018 16.8513 10.0211 15.7058 10.9571 14.832C11.7556 14.0858 12.7505 14.0465 13.7684 14.3804C14.2512 14.532 14.6554 14.8669 14.8942 15.3131C14.9956 15.5062 15.1462 15.7811 14.9105 15.9415C14.8021 16.0177 14.6691 16.0506 14.5376 16.0336C14.4062 16.0167 14.2859 15.9511 14.2004 15.8498C13.1825 14.868 12.4004 14.76 11.6378 15.4047C10.9473 15.9873 10.7542 17.7447 11.2942 18.5596C11.4554 18.7814 11.6668 18.9619 11.9111 19.0863C12.1554 19.2107 12.4257 19.2756 12.6998 19.2756C12.974 19.2756 13.2443 19.2107 13.4886 19.0863C13.7329 18.9619 13.9442 18.7814 14.1055 18.5596C14.3542 18.1767 14.5604 17.9116 15.1265 18.0949Z" fill="#324558"/>
<path d="M16.1705 17.1556C16.1705 17.0247 16.1705 16.8873 16.1705 16.7564C16.2524 15.9775 15.7942 14.7927 16.3833 14.4982C17.2375 14.0531 18.4058 14.2691 19.4236 14.4491C20.2385 14.5931 20.5265 15.2935 20.5396 16.0233C20.5527 16.7531 20.2909 17.3324 19.5578 17.5975C19.3775 17.6876 19.18 17.7378 18.9785 17.7447C17.5811 17.5975 16.6549 17.9051 17.0149 19.6135C17.0804 19.908 16.8513 19.9996 16.5731 19.9964C16.2949 19.9931 16.1738 19.8262 16.1738 19.5545V17.1556H16.1705ZM17.9705 17.0051C18.7855 16.9887 19.6069 17.1 19.6069 16.0527C19.6069 14.9433 18.7298 15.1265 18.0262 15.0415C17.2604 14.9498 17.0084 15.2051 17.0051 16.0233C16.9985 16.8742 17.2702 17.172 17.9705 17.0182V17.0051Z" fill="#324558"/>
<path d="M7.96581 29.7262L6.30981 28.1455C8.04436 27.7527 8.05745 27.7658 7.96581 29.7262Z" fill="#324558"/>
<path d="M29.7425 28.0309L28.1062 29.6018C27.7625 27.9491 27.7658 27.9458 29.7425 28.0309Z" fill="#324558"/>
<path d="M17.9705 17.0182C17.2702 17.1851 16.9887 16.8873 16.9887 16.0364C16.9887 15.228 17.244 14.9727 18.0098 15.0545C18.7135 15.1396 19.5938 14.9564 19.5905 16.0658C19.5938 17.1 18.7855 16.9887 17.9705 17.0182Z" fill="#B5C1CC"/>
<path d="M27.6447 8.18182V5.72727L30.0993 8.18182H27.6447Z" fill="black"/>
<path d="M8.21782 8.21455L5.76982 8.07709L8.35528 5.76328L8.21782 8.21455Z" fill="black"/>
<path d="M27.6185 27.9294L30.0698 27.8149L27.7298 30.3807L27.6185 27.9294Z" fill="black"/>
<path d="M8.41418 27.9687L8.33563 30.4233L5.96291 27.8902L8.41418 27.9687Z" fill="black"/>
</svg>
