<svg width="13" height="16" viewBox="0 0 13 16" fill="none" xmlns="http://www.w3.org/2000/svg">
<g clip-path="url(#clip0_43_43)">
<path d="M12.0814 2.63388C11.8679 6.45776 11.6641 10.2848 11.4344 14.1055C11.3536 15.4383 10.8166 15.9524 9.46131 15.9778C7.52053 16.0095 5.59592 16.0063 3.66485 15.9778C2.16398 15.9778 1.64643 15.505 1.55263 13.9913C1.31327 10.2086 1.13213 6.42285 0.928345 2.63705C1.54939 2.4054 2.19956 2.49425 2.83355 2.51012C5.91615 2.57358 9.00199 2.33241 12.0814 2.63388Z" fill="#7C828E"/>
<path d="M12.0814 2.63388C9.002 2.31654 5.91615 2.57359 2.83355 2.51012C2.18662 2.51012 1.53969 2.4054 0.928346 2.63705C0.242603 2.61484 -0.0323405 2.32924 5.80691e-06 1.60572C0.0388214 0.831419 0.530486 0.98374 0.993039 0.952006C2.35159 0.856806 3.65191 1.02182 5.03957 0.336378C5.64382 0.0667595 6.30994 -0.0414851 6.97053 0.0225976C7.63112 0.0866804 8.26273 0.320816 8.80145 0.701312C9.70391 1.33598 10.9104 0.859979 11.9811 0.948833C12.4372 0.986913 12.9515 0.825073 12.9968 1.5835C13.0388 2.29433 12.7833 2.61484 12.0814 2.63388Z" fill="#E3E4E7"/>
</g>
<defs>
<clipPath id="clip0_43_43">
<rect width="13" height="16" fill="white"/>
</clipPath>
</defs>
</svg>
