<svg width="60" height="60" viewBox="0 0 60 60" fill="none" xmlns="http://www.w3.org/2000/svg">
<path d="M43.7338 0C48.84 0 53.9501 0 59.0602 0C59.7913 0 59.9968 0.185704 59.9929 0.928532C59.9692 11.1187 60.0522 21.3089 59.9376 31.4951C59.8941 35.1856 58.9179 38.7456 57.4161 42.1634C55.7518 45.8831 53.3599 49.2323 50.3813 52.0138C48.6423 53.6408 46.7065 55.0438 44.6191 56.1903C39.3796 59.1386 33.3672 60.4244 27.3798 59.8767C24.5171 59.6159 21.7042 58.9603 19.0211 57.9288C16.0102 56.7379 13.2085 55.0747 10.7216 53.0016C7.44008 50.2576 4.78518 46.8421 2.93589 42.9853C0.90559 38.6632 -0.096737 33.9299 0.00735261 29.156C0.116101 25.2812 0.977868 21.4645 2.54462 17.9188C4.46376 13.5582 7.39644 9.71877 11.0988 6.71965C14.8011 3.72053 19.1661 1.64843 23.8308 0.675655C26.2701 0.190303 28.7544 -0.0322336 31.2411 0.0118532C35.4106 0.027658 39.5682 0 43.7338 0Z" fill="#EEF3F8"/>
<path d="M21.3282 12.1427C22.6115 12.5624 23.7999 13.1379 24.703 14.1753C26.5515 16.2871 27.0294 18.6945 25.9705 21.2867C24.9116 23.8789 22.8888 25.3176 20.087 25.4628C17.2245 25.5921 15.112 24.3013 13.7414 21.8041C13.6411 21.6219 13.546 21.4345 13.4483 21.2497C13.4614 21.2061 13.4588 21.1592 13.4409 21.1173C13.4231 21.0753 13.3911 21.041 13.3506 21.0201C13.3268 20.9383 13.3057 20.8564 13.2846 20.7746C12.968 19.6293 12.9148 18.4273 13.1288 17.2585C13.3881 16.3462 13.7977 15.4835 14.3409 14.7059C15.3417 13.386 16.6911 12.5941 18.2623 12.1268C19.2773 11.9526 20.315 11.9579 21.3282 12.1427Z" fill="#B5C1CC"/>
<path d="M48.6487 38.9597L48.7147 39.2052C49.0309 40.3496 49.0851 41.5505 48.8731 42.7187C48.6777 43.3546 48.4286 43.9728 48.1285 44.5665C47.1118 46.3272 45.5696 47.3699 43.6393 47.8794C42.7315 48.0365 41.8034 48.0365 40.8956 47.8794C39.121 47.4148 37.6502 46.5094 36.6282 44.9519C36.1215 44.1865 35.7764 43.3256 35.6143 42.4222C35.4521 41.5187 35.4761 40.5917 35.685 39.6979C35.8938 38.804 36.2831 37.9622 36.8289 37.2241C37.3746 36.4859 38.0654 35.867 38.859 35.4051C39.6525 34.9433 40.532 34.6482 41.4436 34.5381C42.3552 34.428 43.2797 34.5052 44.1604 34.7648C45.0411 35.0245 45.8595 35.4612 46.5654 36.0481C47.2714 36.6351 47.85 37.36 48.2658 38.1784C48.3608 38.3658 48.4612 38.5479 48.5589 38.7327C48.5468 38.7752 48.549 38.8204 48.5653 38.8615C48.5815 38.9025 48.6108 38.937 48.6487 38.9597ZM40.0004 41.2326C40.0294 42.5524 40.9854 43.4473 42.4457 43.5793C43.3541 43.6611 44.5239 42.2911 44.5133 41.2035C44.4908 40.6186 44.2418 40.0653 43.8188 39.6605C43.3959 39.2556 42.8322 39.0308 42.2467 39.0336C41.6611 39.0363 41.0995 39.2664 40.6804 39.6752C40.2613 40.084 40.0175 40.6395 40.0004 41.2246V41.2326Z" fill="#B5C1CC"/>
<path d="M13.2633 34.1739L17.9664 29.528C18.4664 29.0317 18.962 28.5328 19.4531 28.0313C19.63 27.8518 19.7621 27.7382 20.005 27.9837C22.0824 30.0727 24.1659 32.1572 26.2556 34.2373C26.2925 34.2742 26.3005 34.3376 26.3427 34.43C25.8947 34.4999 25.4401 34.5176 24.988 34.4828C24.1958 34.4828 23.3878 34.5197 22.5903 34.4828C22.0304 34.4379 21.9776 34.6781 22.0436 35.1506C22.202 36.2154 22.738 37.1878 23.5539 37.8905C24.3697 38.5931 25.4111 38.9792 26.4879 38.9782C28.5239 39.0073 30.5599 38.9993 32.5959 38.9782C33.1003 38.9782 33.2983 39.0733 33.2745 39.6302C33.227 40.731 33.2429 41.8371 33.2745 42.9378C33.2745 43.3496 33.1874 43.5054 32.7464 43.5001C30.5942 43.4763 28.4447 43.5001 26.2952 43.4842C21.909 43.4367 18.109 40.0051 17.5941 35.6337C17.4568 34.4907 17.4568 34.4907 16.2737 34.4907H13.1366L13.2633 34.1739Z" fill="#36435C"/>
<path d="M48.7332 25.8086L44.3179 30.1721C43.7247 30.7599 43.134 31.352 42.546 31.9486C42.3665 32.1334 42.2292 32.2337 41.9889 31.9935C39.9133 29.9002 37.8218 27.8227 35.7436 25.7268C35.7066 25.6898 35.6987 25.6265 35.6353 25.4786H37.0085C37.8007 25.4786 38.6088 25.4522 39.4062 25.4786C39.908 25.4997 40.0295 25.3334 39.9555 24.853C39.8072 23.7764 39.273 22.7902 38.4522 22.0775C37.6315 21.3648 36.5799 20.9741 35.4927 20.9779C33.4594 20.9489 31.4208 20.9541 29.3874 20.9779C28.891 20.9779 28.7246 20.8644 28.7431 20.3496C28.7827 19.2462 28.7721 18.1428 28.7431 17.0394C28.7431 16.6065 28.8434 16.4481 29.3135 16.4534C31.3495 16.4824 33.3854 16.4534 35.4188 16.4666C37.7178 16.4511 39.9357 17.3153 41.6178 18.8819C43.2999 20.4486 44.3189 22.5991 44.4658 24.8926C44.5002 25.373 44.6428 25.4866 45.0996 25.476C46.3539 25.4443 47.6109 25.476 48.8652 25.476L48.7332 25.8086Z" fill="#36435C"/>
<path d="M13.3505 21.0201C13.3888 21.0406 13.4193 21.0733 13.437 21.1129C13.4547 21.1526 13.4586 21.1971 13.4482 21.2392C13.3003 21.2234 13.1762 21.1864 13.3505 21.0201Z" fill="#EDEDED"/>
<path d="M48.6487 38.9598C48.6082 38.9375 48.5767 38.902 48.5594 38.8592C48.542 38.8164 48.54 38.769 48.5536 38.7248C48.6909 38.7539 48.8124 38.7961 48.6487 38.9598Z" fill="#EDEDED"/>
</svg>
