<svg width="42" height="34" viewBox="0 0 42 34" fill="none" xmlns="http://www.w3.org/2000/svg">
<circle cx="33" cy="29" r="4.5" fill="#5FC976" stroke="#5FC976"/>
<rect x="18" width="4" height="4" fill="#324558"/>
<rect x="8" y="5" width="4" height="4" fill="#324558"/>
<rect x="8" y="10" width="4" height="4" fill="#324558"/>
<rect x="3" y="10" width="4" height="4" fill="#324558"/>
<rect x="13" y="5" width="4" height="4" fill="#324558"/>
<rect x="13" y="10" width="4" height="4" fill="#324558"/>
<rect x="18" y="5" width="4" height="4" fill="#324558"/>
<rect x="18" y="10" width="4" height="4" fill="#324558"/>
<rect x="23" y="10" width="4" height="4" fill="#324558"/>
<path d="M15.1152 15.0241C19.7806 15.0241 24.446 15.0361 29.1113 15.0241C30.2099 15.0133 31.2912 14.7452 32.2711 14.2408C32.6778 14.0351 32.7335 13.9306 32.5057 13.5107C31.3765 11.4247 31.6111 8.88288 32.9985 7.17917C33.2551 6.86208 33.407 6.81237 33.721 7.06947C34.9886 8.09787 36.1127 9.2411 36.5043 10.9174C36.5971 11.315 36.7474 11.3665 37.144 11.3047C38.6631 11.0682 40.1535 11.1505 41.5629 11.9132C42.0524 12.1789 42.1132 12.3897 41.833 12.8679C40.6059 14.9624 38.6834 15.6926 36.4317 15.7063C35.8005 15.7063 35.5017 15.9154 35.2418 16.481C32.2238 23.0627 27.0487 26.8575 20.1519 28.3435C16.8335 29.0583 13.4712 29.2845 10.1191 28.5801C6.29091 27.7762 3.19868 25.8377 1.27278 22.264C0.204343 20.2792 -0.116358 18.1213 0.0355527 15.8828C0.0777502 15.2726 0.271859 15.0258 0.948706 15.0258C5.67482 15.0618 10.4009 15.0447 15.1152 15.0447V15.0241Z" fill="#324558"/>
<path d="M6.18631 20.9391C6.20994 19.7582 7.23618 18.8292 8.49367 18.8463C9.75115 18.8635 10.7487 19.837 10.7555 21.0042C10.7555 22.1115 9.64481 23.1621 8.46835 23.157C7.1923 23.1501 6.16099 22.1475 6.18631 20.9391Z" fill="#EEF3F8"/>
</svg>
