<svg width="14" height="16" viewBox="0 0 14 16" fill="none" xmlns="http://www.w3.org/2000/svg">
<path d="M2.21138 15.9812C1.83121 15.978 1.45903 15.8719 1.1345 15.6743C0.809972 15.4766 0.545256 15.1947 0.368566 14.8587C-0.0807036 14.0611 -0.193694 13.1588 0.457344 12.5143C1.26442 11.7382 1.26442 10.8493 1.17026 9.93353C1.07072 8.85935 1.38548 8.16381 2.46964 7.78516C3.22291 7.51661 3.9143 7.08425 4.63528 6.71097C6.09877 5.97784 6.30592 5.01645 5.27018 3.73011C4.69447 3.01577 4.5196 2.23162 4.8801 1.38301C5.03439 0.990721 5.29913 0.651393 5.64236 0.405983C5.98559 0.160574 6.39264 0.0195721 6.81438 -2.49385e-06C7.25127 -0.0593024 7.6958 0.0193878 8.08563 0.225033C8.47546 0.430678 8.79103 0.752963 8.98809 1.14669C9.22674 1.53676 9.33455 1.99264 9.29584 2.44806C9.25714 2.90349 9.07394 3.33472 8.77287 3.67908C7.73175 5.02182 7.94428 5.99127 9.44812 6.74051C10.2875 7.15945 11.1134 7.61061 11.9769 7.97851C12.6361 8.24706 12.8513 8.69553 12.8324 9.38301C12.8028 10.5324 12.7221 11.6415 13.6395 12.6539C14.3524 13.4434 13.9462 14.8157 13.0692 15.5166C12.6383 15.8415 12.1079 16.0073 11.5684 15.9857C11.0288 15.9642 10.5134 15.7567 10.1099 15.3985C9.71595 15.0286 9.46458 14.5324 9.39968 13.9965C9.33478 13.4605 9.46046 12.9188 9.75481 12.4659C9.98348 12.1034 10.4381 11.8993 10.4839 11.4132C10.5673 10.5136 10.5269 9.80194 9.47771 9.31319C6.96503 8.15844 6.99462 8.09399 4.52229 9.35079C3.35742 9.94427 3.10992 11.1232 3.98425 12.1222C4.64874 12.8822 4.84512 13.7066 4.4389 14.6277C4.03536 15.5139 3.3359 15.9624 2.21138 15.9812ZM6.92737 3.30043C7.62683 3.27626 8.04651 2.97549 8.08148 2.28264C8.10271 2.14046 8.09253 1.99537 8.05165 1.85753C8.01076 1.7197 7.94017 1.59246 7.84482 1.48474C7.74946 1.37701 7.63166 1.29142 7.49966 1.23395C7.36767 1.17648 7.22467 1.14853 7.08071 1.15206C6.92982 1.13348 6.7767 1.14759 6.63177 1.19345C6.48685 1.23931 6.35354 1.31582 6.24093 1.41778C6.12832 1.51974 6.03907 1.64474 5.97925 1.78426C5.91943 1.92378 5.89046 2.07454 5.89432 2.22625C5.85396 2.92178 6.32206 3.22256 6.92737 3.30043ZM3.45965 13.6771C3.3628 13.0728 2.99424 12.662 2.3432 12.6808C1.69216 12.6996 1.18909 13.0728 1.24289 13.8087C1.29132 14.4397 1.69754 14.8828 2.3432 14.864C2.98886 14.8452 3.44351 14.4451 3.45965 13.6771ZM12.7383 13.8785C12.7598 13.1051 12.3751 12.7452 11.7241 12.6915C11.5816 12.6703 11.4363 12.6792 11.2975 12.7174C11.1586 12.7556 11.0293 12.8223 10.9179 12.9134C10.8064 13.0044 10.7152 13.1177 10.6502 13.246C10.5852 13.3743 10.5478 13.5147 10.5404 13.6583C10.465 14.3619 10.9358 14.7889 11.6165 14.8211C11.7535 14.8408 11.8932 14.8314 12.0264 14.7935C12.1595 14.7555 12.2831 14.6899 12.3891 14.6008C12.495 14.5118 12.5809 14.4014 12.6411 14.2769C12.7013 14.1525 12.7344 14.0167 12.7383 13.8785Z" fill="#848C9B"/>
<path d="M6.92737 3.30043C6.32207 3.22793 5.85128 2.92178 5.89432 2.22625C5.89047 2.07454 5.91944 1.92378 5.97925 1.78426C6.03907 1.64474 6.12833 1.51974 6.24094 1.41778C6.35354 1.31582 6.48686 1.23931 6.63178 1.19345C6.7767 1.1476 6.92983 1.13348 7.08071 1.15206C7.22378 1.15012 7.36556 1.17923 7.49623 1.2374C7.62691 1.29556 7.74336 1.38138 7.83752 1.48891C7.93169 1.59645 8.00131 1.72312 8.04158 1.86017C8.08184 1.99723 8.09179 2.14138 8.07072 2.28264C8.04651 2.97549 7.62683 3.27627 6.92737 3.30043Z" fill="#E6E7EA"/>
<path d="M3.45965 13.6771C3.44351 14.4451 3.00231 14.8399 2.3432 14.864C1.68409 14.8882 1.29132 14.4397 1.2429 13.8087C1.18909 13.0728 1.67333 12.7022 2.3432 12.6808C3.01307 12.6593 3.3628 13.0728 3.45965 13.6771Z" fill="#E6E7EA"/>
<path d="M12.7383 13.8785C12.7342 14.0156 12.7013 14.1504 12.6418 14.274C12.5823 14.3977 12.4974 14.5075 12.3927 14.5963C12.2879 14.6852 12.1657 14.7511 12.0338 14.7898C11.902 14.8285 11.7634 14.8392 11.6272 14.8211C10.9358 14.7889 10.465 14.3619 10.5511 13.6583C10.5585 13.5147 10.596 13.3743 10.661 13.246C10.726 13.1177 10.8172 13.0044 10.9286 12.9134C11.0401 12.8223 11.1694 12.7556 11.3082 12.7174C11.4471 12.6792 11.5924 12.6703 11.7348 12.6915C12.3751 12.7452 12.7598 13.1051 12.7383 13.8785Z" fill="#E6E7EA"/>
</svg>
