<svg width="40" height="40" viewBox="0 0 40 40" fill="none" xmlns="http://www.w3.org/2000/svg">
<path d="M17.436 23.4344C17.3972 23.8898 17.3972 24.3477 17.436 24.8031C17.6724 26.0984 17.1307 26.8929 15.9656 27.437C14.8994 27.9378 13.8933 28.5725 12.8744 29.1641C12.6929 29.2981 12.475 29.3732 12.2499 29.3794C12.0247 29.3855 11.8031 29.3225 11.6146 29.1986C10.2732 28.4041 8.90174 27.6313 7.53454 26.867C7.35769 26.7769 7.21234 26.6349 7.11787 26.4598C7.0234 26.2847 6.98428 26.0848 7.00572 25.8869C7.02722 24.2418 7.00572 22.5967 7.00572 20.956C6.99065 20.7913 7.02575 20.6259 7.10636 20.4817C7.18698 20.3375 7.30931 20.2213 7.45716 20.1485C8.89028 19.3397 10.3019 18.515 11.692 17.6744C11.85 17.5627 12.0384 17.5028 12.2316 17.5028C12.4248 17.5028 12.6132 17.5627 12.7712 17.6744C14.0997 18.4646 15.4454 19.2288 16.7911 19.9801C17.0117 20.0778 17.195 20.2446 17.3135 20.4554C17.4321 20.6663 17.4796 20.91 17.4489 21.1503C17.3973 21.9102 17.436 22.6744 17.436 23.4344Z" fill="#B6C1CC"/>
<path d="M29.6634 23.7712C29.6634 24.0734 29.6419 24.38 29.6333 24.6822C27.8534 25.2608 26.7656 26.4093 26.6968 28.3523C26.0519 28.4473 25.5876 28.8964 25.0459 29.2159C24.8675 29.3494 24.6544 29.4282 24.4324 29.4428C24.2104 29.4573 23.9889 29.407 23.7948 29.2979C22.4147 28.4819 21.0432 27.6442 19.6459 26.8541C19.4554 26.7674 19.297 26.6228 19.1928 26.4407C19.0886 26.2586 19.0441 26.0483 19.0655 25.8394C19.0913 24.2879 19.0913 22.7349 19.0655 21.1805C19.0445 20.955 19.0936 20.7285 19.206 20.5321C19.3184 20.3357 19.4886 20.1791 19.6932 20.0838C21.1263 19.2893 22.5465 18.4747 23.9538 17.6399C24.0709 17.5494 24.2129 17.4972 24.3605 17.4902C24.5081 17.4833 24.6543 17.5219 24.7793 17.601C26.2669 18.4646 27.7545 19.3584 29.2592 20.1917C29.6247 20.399 29.6376 20.6883 29.6376 21.0337C29.6376 21.9447 29.6548 22.8558 29.6634 23.7712Z" fill="#B6C1CC"/>
<path d="M23.6056 12.9378C23.5668 13.3918 23.5668 13.8483 23.6056 14.3022C23.8421 15.5976 23.3003 16.3921 22.1352 16.9404C21.069 17.4413 20.0629 18.076 19.044 18.6675C18.863 18.8022 18.6453 18.8781 18.4202 18.885C18.195 18.892 17.9731 18.8296 17.7843 18.7064C16.43 17.899 15.0585 17.1261 13.6913 16.3489C13.5163 16.2589 13.3723 16.1181 13.278 15.9449C13.1837 15.7716 13.1434 15.5739 13.1624 15.3774C13.1839 13.7323 13.1624 12.0915 13.1624 10.4465C13.1499 10.2823 13.1877 10.1182 13.2707 9.97619C13.3537 9.83419 13.4779 9.72107 13.6268 9.65198C15.0499 8.84024 16.4644 8.01986 17.8616 7.17357C18.0191 7.06068 18.2077 7 18.4012 7C18.5947 7 18.7833 7.06068 18.9408 7.17357C20.2693 7.96805 21.6236 8.7323 22.9607 9.48791C23.181 9.58482 23.3641 9.75077 23.4827 9.96091C23.6013 10.1711 23.6489 10.4141 23.6185 10.6537C23.5669 11.4093 23.6056 12.1865 23.6056 12.9378Z" fill="#344659"/>
<circle cx="29.5" cy="27.5" r="3.5" fill="#AB2F29"/>
</svg>
