<svg width="12" height="12" viewBox="0 0 12 12" fill="none" xmlns="http://www.w3.org/2000/svg">
<g clip-path="url(#clip0_30_39)">
<path d="M3.5482 11.4363C2.79421 11.3761 2.466 10.7699 2.83856 10.1832C3.05145 9.8446 3.04258 9.62658 2.73034 9.35184C2.45181 9.10723 2.2744 8.89098 1.85571 9.15509C1.21703 9.55923 0.750446 9.31816 0.587229 8.57902C0.503847 8.20502 0.862214 8.24401 1.03253 8.11816C1.31461 7.90546 1.68185 7.84697 1.51863 7.28508C1.36783 6.7675 1.16381 6.57606 0.661741 6.67178C0.0425811 6.79054 0.0283883 6.44844 0.00709915 5.96277C-0.0177382 5.40974 0.195154 5.23426 0.677708 5.34593C1.35364 5.50014 1.38735 5.0127 1.53815 4.58375C1.72797 4.05199 1.25961 4.06617 1.03075 3.90664C0.761091 3.7223 0.363693 3.63367 0.709642 3.19054C0.952693 2.88567 1.0343 2.17843 1.66411 2.74032C2.25843 3.27208 2.57599 2.81122 2.93791 2.44253C3.2058 2.16779 2.90598 1.9994 2.80663 1.81506C2.49438 1.22835 2.82082 0.583155 3.47546 0.574292C3.78061 0.574292 3.83028 0.884484 3.92253 1.07946C4.11946 1.5155 4.35719 1.59527 4.83619 1.4836C5.36842 1.36661 5.34891 1.06883 5.34536 0.680643C5.34536 0.473258 5.2265 0.132933 5.43939 0.0762122C5.80339 -0.0194836 6.18597 -0.0194836 6.54997 0.0762122C6.80899 0.147113 6.66529 0.508708 6.65997 0.733819C6.65997 1.11137 6.65997 1.38256 7.14962 1.47474C7.57895 1.55804 7.85926 1.60945 8.07925 1.12023C8.32762 0.561884 9.055 0.577837 9.41692 1.09896C9.59433 1.35243 9.37079 1.51373 9.26789 1.68567C9.055 2.04017 8.87936 2.30073 9.29628 2.69955C9.67239 3.05406 9.92076 3.02215 10.2951 2.78286C10.4725 2.66942 10.6925 2.36277 10.9196 2.61979C11.154 2.88375 11.3299 3.19423 11.4358 3.53087C11.4997 3.74711 11.1786 3.80915 11.0172 3.88537C10.4849 4.10516 10.4193 4.44017 10.5559 4.97193C10.6925 5.50369 11.0686 5.31048 11.3791 5.36011C11.5795 5.39202 11.9113 5.22185 11.9574 5.49837C12.0235 5.86537 12.012 6.24212 11.9237 6.60443C11.8794 6.78168 11.5565 6.70369 11.3755 6.6771C10.8433 6.59911 10.6339 6.80649 10.4885 7.33648C10.343 7.86646 10.6659 7.96395 10.9622 8.11285C11.3347 8.30428 11.6097 8.44253 11.2584 8.92466C10.987 9.30044 10.8468 9.68862 10.2791 9.27917C10.1746 9.20267 10.0536 9.15172 9.92586 9.13041C9.79809 9.1091 9.66709 9.11802 9.54339 9.15646C9.41969 9.19489 9.30674 9.26178 9.2136 9.35174C9.12046 9.4417 9.04973 9.55222 9.0071 9.67444C8.91485 9.96691 9.18451 10.1956 9.33176 10.4242C9.54465 10.7486 9.55529 11.0003 9.15435 11.1332C8.83146 11.2289 8.49971 11.8422 8.16085 11.1102C7.99764 10.7468 7.92312 10.2806 7.2738 10.4969C6.79125 10.66 6.56417 10.8354 6.66352 11.3442C6.76286 11.8529 6.54288 12.0035 6.02484 12C5.5068 11.9964 5.20166 11.9167 5.33649 11.3318C5.48019 10.7149 5.0686 10.6458 4.62685 10.4827C4.11236 10.2913 4.09462 10.7025 3.91721 10.9294C3.78061 11.1013 3.78238 11.4062 3.5482 11.4363ZM9.32111 5.99822C9.31176 5.11576 8.95371 4.27275 8.32498 3.65288C7.69626 3.03302 6.84781 2.68653 5.96452 2.68892C5.09265 2.70734 4.26231 3.06459 3.64982 3.68481C3.03733 4.30503 2.69094 5.13936 2.68421 6.01063C2.6969 6.88054 3.0471 7.71155 3.66101 8.32855C4.27491 8.94555 5.10458 9.30034 5.97517 9.31816C6.85901 9.31958 7.7074 8.97099 8.33453 8.34873C8.96166 7.72648 9.31642 6.88127 9.32111 5.99822Z" fill="#36485B"/>
<path d="M6.01243 7.99409C4.98523 7.99409 4.00593 7.02097 4.01125 5.99645C4.01657 4.97193 5.00652 3.99527 6.03195 4.01299C7.05738 4.03072 7.98346 4.9737 7.99942 5.97873C8.01539 6.98375 7.04319 7.98877 6.01243 7.99409Z" fill="#B6C2CD"/>
</g>
<defs>
<clipPath id="clip0_30_39">
<rect width="12" height="12" fill="white"/>
</clipPath>
</defs>
</svg>
