<svg width="60" height="60" viewBox="0 0 60 60" fill="none" xmlns="http://www.w3.org/2000/svg">
<path d="M43.7393 0.00519117C48.8438 0.00519117 53.9521 0.00519117 59.0605 0.00519117C59.7914 0.00519117 59.9968 0.190888 59.9929 0.933673C59.9692 11.1193 60.0522 21.3089 59.9376 31.4985C59.8941 35.1887 58.9183 38.7486 57.417 42.1662C55.7532 45.8857 53.3622 49.2347 50.3846 52.016C48.6462 53.6429 46.711 55.0458 44.6243 56.1922C39.385 59.1362 33.376 60.4215 27.391 59.8785C24.5292 59.6176 21.7172 58.9621 19.035 57.9306C16.025 56.7384 13.2243 55.0739 10.7384 52.9998C7.45618 50.2577 4.80186 46.8419 2.9553 42.984C1.61667 40.2125 0.729714 37.2447 0.32802 34.1931C0.0755249 32.5264 -0.0315499 30.8409 0.00800615 29.1556C0.121697 25.2787 0.988538 21.4609 2.56022 17.915C4.47871 13.5547 7.41038 9.7155 11.1115 6.71655C14.8125 3.71761 19.1761 1.64563 23.8392 0.672908C26.2775 0.186078 28.7609 -0.037775 31.2469 0.00519117C35.4111 0.048652 39.5752 0.00519117 43.7393 0.00519117ZM34.6288 29.9695L47.9667 22.2848C42.0405 18.8949 36.2368 15.5681 30.4528 12.2572C30.29 12.1611 30.1012 12.1182 29.9128 12.1345C29.7244 12.1508 29.5458 12.2255 29.4019 12.3481C25.4511 14.6238 21.4845 16.8943 17.5021 19.1596L12.0224 22.2888C12.3858 22.5021 12.6426 22.6602 12.9034 22.8063L25.3642 29.9695C24.8901 30.5424 24.179 30.7597 23.5666 31.1192C19.945 33.2106 16.3129 35.2823 12.6703 37.3341C12.2002 37.6028 12.1211 37.7845 12.6703 38.0967C18.3094 41.2943 23.9406 44.5039 29.5639 47.7252C29.6907 47.8195 29.8444 47.8704 30.0024 47.8704C30.1604 47.8704 30.3142 47.8195 30.441 47.7252C36.059 44.5039 41.6876 41.297 47.3267 38.1046C48.0378 37.7095 47.6388 37.5277 47.2437 37.3144C43.9487 35.4377 40.638 33.5886 37.3667 31.6763C36.4383 31.1232 35.4071 30.7439 34.6288 29.9695Z" fill="#EEF3F8"/>
<path d="M25.3643 29.9696L12.9035 22.8065C12.6428 22.6603 12.386 22.5022 12.0225 22.2889L17.5022 19.1597C21.4688 16.8918 25.4354 14.6213 29.402 12.3482C29.5455 12.225 29.7239 12.1496 29.9123 12.1326C30.1007 12.1156 30.2897 12.1578 30.4529 12.2534C36.2369 15.584 42.0367 18.891 47.9668 22.281L34.6289 29.9696C33.258 30.7361 31.8634 31.4868 30.5241 32.277C30.3711 32.3875 30.1873 32.447 29.9986 32.447C29.8099 32.447 29.626 32.3875 29.4731 32.277C28.118 31.4868 26.7352 30.7361 25.3643 29.9696Z" fill="#334658"/>
<path d="M25.3643 29.9696C26.7353 30.7361 28.1299 31.4868 29.4732 32.277C29.6261 32.3875 29.8099 32.447 29.9986 32.447C30.1873 32.447 30.3712 32.3875 30.5241 32.277C31.8792 31.4868 33.258 30.7361 34.6289 29.9696C35.4191 30.7598 36.4384 31.1233 37.3629 31.6606C40.6381 33.5729 43.9489 35.422 47.2399 37.2987C47.635 37.5199 48.03 37.6938 47.3228 38.0889C41.689 41.2839 36.0578 44.4934 30.4293 47.7174C30.3025 47.8117 30.1487 47.8627 29.9907 47.8627C29.8327 47.8627 29.6789 47.8117 29.5522 47.7174C23.9394 44.4987 18.3122 41.2918 12.6704 38.0968C12.1213 37.7847 12.2003 37.6029 12.6704 37.3342C16.3052 35.2718 19.9373 33.2002 23.5667 31.1193C24.1791 30.7677 24.8981 30.5425 25.3643 29.9696Z" fill="#B5C1CC"/>
</svg>
