<svg width="20" height="20" viewBox="0 0 20 20" fill="none" xmlns="http://www.w3.org/2000/svg">
<path d="M12.399 13.7072C11.3503 13.6418 10.5783 14.4124 9.58789 14.6086C8.13156 14.8666 6.63063 14.6225 5.33167 13.9164C4.03271 13.2103 3.01297 12.0842 2.43996 10.7231C1.92184 9.41122 1.85946 7.96376 2.26281 6.61227C2.66615 5.26079 3.51191 4.08337 4.66481 3.26835C7.3594 1.42555 10.6621 1.56367 12.8469 3.86081C14.5255 5.63455 15.465 7.99711 14.1396 10.9921C13.9393 11.4501 13.6443 11.8681 13.7099 12.3987C13.3782 12.4441 13.0705 12.5965 12.8338 12.8328C12.5971 13.0691 12.4444 13.3762 12.399 13.7072ZM3.90377 8.20792C3.87464 10.8322 5.75357 12.8422 8.30978 12.904C10.6694 12.9694 12.8505 10.8722 12.9051 8.4878C12.9177 7.89988 12.814 7.31527 12.6001 6.76738C12.3861 6.21948 12.0661 5.71907 11.6582 5.29474C11.2504 4.87041 10.7627 4.53049 10.2231 4.29442C9.68358 4.05836 9.10269 3.93077 8.5137 3.91896C5.91743 3.87898 3.9329 5.72541 3.90377 8.20792Z" fill="#B7C2CD"/>
<path d="M12.399 13.7072C12.4444 13.3762 12.5971 13.0691 12.8338 12.8328C13.0705 12.5965 13.3782 12.4441 13.7099 12.3987C15.0171 13.7218 16.2916 15.0848 17.6498 16.3497C18.2579 16.9167 17.9629 17.1966 17.5551 17.6436C17.1473 18.0907 16.8268 18.1052 16.3644 17.6436C15.0681 16.2952 13.7244 15.0121 12.399 13.7072Z" fill="#36485B"/>
</svg>
