<svg width="16" height="16" viewBox="0 0 16 16" fill="none" xmlns="http://www.w3.org/2000/svg">
<path d="M6.65625 0L13 13.3482C12.0063 13.2472 11.0714 13.1535 10.1365 13.0562C9.07431 12.9456 8.01335 12.8231 6.95483 12.7245C6.7003 12.7017 6.57303 12.6536 6.57426 12.3641C6.58242 8.26675 6.58527 4.16982 6.58282 0.0732953C6.57793 0.0648843 6.59384 0.0564734 6.65625 0Z" fill="#36435C"/>
<path d="M5.57203 5.46591C5.6944 5.59808 5.65525 5.70622 5.65525 5.80355C5.65525 7.96636 5.65525 10.1292 5.66136 12.292C5.66136 12.5683 5.62465 12.7053 5.28568 12.7582C4.2186 12.9168 3.16131 13.1391 2 13.359C3.20781 10.6939 4.3838 8.09012 5.57203 5.46591Z" fill="#36435C"/>
<path d="M2.05997 14.2661H12.6843L12.7014 14.3226C12.1581 14.4728 11.616 14.629 11.0702 14.772C9.57115 15.1661 8.07087 15.5518 6.57181 15.9483C6.28339 16.0359 5.97183 16.0123 5.70053 15.8822C4.68239 15.4136 3.64713 14.9787 2.61921 14.5293C2.46135 14.4596 2.30716 14.3827 2.05997 14.2661Z" fill="#36435C"/>
</svg>
