<svg width="60" height="60" viewBox="0 0 60 60" fill="none" xmlns="http://www.w3.org/2000/svg">
<path d="M43.7242 0C48.8292 0 53.9382 0 59.0472 0C59.7782 0 59.9836 0.18573 59.9797 0.928667C59.956 11.1203 60.039 21.312 59.9244 31.4997C59.8809 35.1907 58.9049 38.7512 57.4035 42.1695C55.7395 45.8898 53.3482 49.2394 50.3702 52.0213C48.6316 53.6485 46.6962 55.0518 44.6093 56.1984C39.371 59.1472 33.3599 60.4331 27.3738 59.8854C24.5117 59.6245 21.6994 58.9689 19.0169 57.9372C16.0067 56.7461 13.2056 55.0826 10.7192 53.0093C7.43844 50.2649 4.78413 46.8488 2.93524 42.9915C0.90539 38.6688 -0.0967157 33.9348 0.00735099 29.1602C0.116076 25.2849 0.977653 21.4676 2.54406 17.9214C4.46278 13.5602 7.39481 9.72017 11.0963 6.72062C14.7979 3.72107 19.1619 1.64867 23.8256 0.675752C26.2643 0.19033 28.748 -0.0322383 31.2342 0.0118549C35.4028 0.027662 39.5595 0 43.7242 0Z" fill="#EEF3F8"/>
<path d="M29.5455 5.90915L48 44.7401C45.1094 44.4465 42.3896 44.1739 39.6698 43.8907C36.5798 43.5692 33.4934 43.2126 30.4141 42.926C29.6736 42.8596 29.3034 42.7198 29.3069 41.8774C29.3307 29.9579 29.339 18.0395 29.3319 6.12237C29.3176 6.0979 29.3639 6.07344 29.5455 5.90915Z" fill="#36435C"/>
<path d="M26.3914 21.81C26.7474 22.1945 26.6334 22.5091 26.6334 22.7922C26.6334 29.084 26.6334 35.3759 26.6512 41.6677C26.6512 42.4716 26.5444 42.8701 25.5583 43.0239C22.4541 43.4853 19.3784 44.132 16 44.7716C19.5136 37.0187 22.9347 29.4441 26.3914 21.81Z" fill="#36435C"/>
<path d="M16.1745 47.4106H47.0816L47.1314 47.5749C45.5508 48.0119 43.9738 48.4663 42.3861 48.8822C38.0252 50.0287 33.6607 51.1508 29.2998 52.3043C28.4608 52.559 27.5544 52.4903 26.7652 52.112C23.8033 50.7488 20.7917 49.4834 17.8013 48.1761C17.3421 47.9734 16.8936 47.7497 16.1745 47.4106Z" fill="#36435C"/>
</svg>
