<svg width="16" height="16" viewBox="0 0 16 16" fill="none" xmlns="http://www.w3.org/2000/svg">
<path d="M7.65625 0L14 13.3482C13.0063 13.2472 12.0714 13.1535 11.1365 13.0562C10.0743 12.9456 9.01335 12.8231 7.95483 12.7245C7.7003 12.7017 7.57303 12.6536 7.57426 12.3641C7.58242 8.26675 7.58527 4.16982 7.58282 0.0732953C7.57793 0.0648843 7.59384 0.0564734 7.65625 0Z" fill="#36435C"/>
<path d="M6.57203 5.46591C6.6944 5.59808 6.65525 5.70622 6.65525 5.80355C6.65525 7.96636 6.65525 10.1292 6.66136 12.292C6.66136 12.5683 6.62465 12.7053 6.28568 12.7582C5.2186 12.9168 4.16131 13.1391 3 13.359C4.20781 10.6939 5.3838 8.09012 6.57203 5.46591Z" fill="#36435C"/>
<path d="M3.05997 14.2661H13.6843L13.7014 14.3226C13.1581 14.4728 12.616 14.629 12.0702 14.772C10.5711 15.1661 9.07087 15.5518 7.57181 15.9483C7.28339 16.0359 6.97183 16.0123 6.70053 15.8822C5.68239 15.4136 4.64713 14.9787 3.61921 14.5293C3.46135 14.4596 3.30716 14.3827 3.05997 14.2661Z" fill="#36435C"/>
</svg>
