<svg width="36" height="36" viewBox="0 0 36 36" fill="none" xmlns="http://www.w3.org/2000/svg">
<path d="M9.84595 34.2182C8.59877 35.4152 8.59877 35.4152 7.35551 34.1947C5.21302 32.0511 3.07054 29.91 0.928052 27.7716C-0.307395 26.5277 -0.311305 25.5967 0.928052 24.3684C8.74734 16.5448 16.5666 8.72129 24.3859 0.897751C25.5784 -0.29925 26.544 -0.29925 27.7208 0.897751C30.0236 3.19396 32.2951 5.52537 34.637 7.78246C35.3095 8.4279 35.4658 8.87385 34.637 9.43323C34.5174 9.53545 34.4099 9.65094 34.3164 9.77746C34.049 10.0408 33.767 10.2889 33.4719 10.5207C32.69 11.0605 32.733 11.5651 33.4719 12.0854C34.2108 12.6057 33.773 12.9499 33.3742 13.4154C32.8972 13.9709 32.5923 13.9474 32.1231 13.4154C31.9081 13.1533 31.6657 12.6331 31.2864 12.8247C30.8364 13.0576 30.4651 13.4182 30.2191 13.8613C30.0041 14.2525 30.6101 14.4129 30.7743 14.7219C30.9385 15.031 31.4233 15.0779 31.2004 15.5512C30.7547 16.4901 29.9884 16.6817 29.3355 15.9424C28.8077 15.3361 28.4989 15.5043 28.0062 15.9815C27.5136 16.4588 27.3142 16.8656 27.975 17.3819C28.2174 17.5736 28.7061 17.8161 28.5301 18.1643C28.2771 18.5862 27.9152 18.9322 27.4824 19.1657C27.1305 19.3613 26.9702 18.8097 26.7004 18.6454C26.4307 18.4811 26.3407 17.9844 25.895 18.1291C25.69 18.1754 25.5025 18.2794 25.3546 18.4287C25.2067 18.5781 25.1045 18.7667 25.0602 18.9722C25.0158 19.1778 25.0311 19.3917 25.1042 19.5889C25.1773 19.786 25.3052 19.9581 25.4728 20.085C25.938 20.5153 25.9771 20.7734 25.5197 21.2898C24.8863 22.0057 24.4524 21.9626 23.905 21.2546C23.7447 21.0512 23.6001 20.6522 23.1661 20.8634C22.22 21.2898 22.0558 22.0917 22.7751 22.8193C22.8369 22.8916 22.905 22.9584 22.9784 23.0188C23.4671 23.3787 23.2013 23.6877 22.869 23.895C22.5367 24.1024 22.3881 24.9356 21.6961 24.3762C21.3051 24.075 21.0784 23.3943 20.5779 23.5352C20.1479 23.6564 19.839 24.1884 19.4754 24.5405C19.2721 24.74 19.0844 24.9317 18.8733 25.1429C17.9624 26.0543 17.9663 26.0504 18.8342 26.9736C18.9906 27.1379 19.2995 27.2318 19.19 27.5721C19.1361 27.7624 19.0333 27.9353 18.8917 28.0734C18.7501 28.2115 18.5748 28.3101 18.3833 28.3592C18.1918 28.4082 17.9907 28.4062 17.8002 28.3532C17.6097 28.3002 17.4364 28.1981 17.2977 28.0572C17.071 27.8459 16.9068 27.3296 16.5158 27.5525C16.0773 27.8065 15.7154 28.1741 15.468 28.6165C15.2764 29.0077 15.7964 29.2463 16.0584 29.4537C16.6956 29.9544 16.5275 30.3025 16.0232 30.7837C15.5188 31.2648 15.2139 31.523 14.7017 30.8462C14.4984 30.5763 14.2326 30.0639 13.8572 30.2595C13.3898 30.5198 13.006 30.9078 12.7508 31.3782C12.5905 31.6755 13.1418 31.879 13.3294 32.1606C13.3868 32.2356 13.4539 32.3027 13.5288 32.3601C14.2208 32.939 13.5288 33.205 13.2434 33.5336C12.958 33.8622 12.7352 34.2338 12.2152 33.7057C11.2651 32.7356 11.2261 32.7708 10.2604 33.7566C10.1118 33.87 9.9867 34.05 9.84595 34.2182ZM5.86202 22.1034C5.75051 22.1819 5.64469 22.2682 5.54534 22.3616C4.42327 23.4687 3.32075 24.607 2.18696 25.6984C1.79599 26.0895 2.03839 26.2734 2.29643 26.5316C4.21606 28.4483 6.14352 30.3612 8.04751 32.2936C8.43848 32.6848 8.6926 32.7826 9.11485 32.3366C10.1392 31.2609 11.1948 30.2204 12.2426 29.2072C12.5827 28.8786 12.6335 28.6713 12.2738 28.2997C10.319 26.3751 8.36419 24.4231 6.44065 22.4829C6.30381 22.3147 6.1787 22.1152 5.86202 22.1034ZM25.9967 1.95393C25.9004 2.01751 25.8089 2.08811 25.723 2.16516C24.5853 3.29958 23.4554 4.44572 22.3099 5.57231C21.9658 5.90873 22.1809 6.11605 22.4155 6.35467C24.3703 8.31055 26.3251 10.2664 28.2799 12.2497C28.6318 12.6057 28.8468 12.5978 29.187 12.2497C30.2295 11.1622 31.2995 10.093 32.3968 9.04205C32.7682 8.68608 32.7095 8.47485 32.3733 8.14235C30.4185 6.21776 28.4871 4.26969 26.5479 2.32946C26.4072 2.16908 26.2821 1.95393 25.9967 1.95393ZM25.9967 15.2891C25.8716 15.1405 25.7817 15.0153 25.6761 14.898C23.7056 12.9069 21.7117 10.951 19.7413 8.94426C19.405 8.60393 19.2056 8.66261 18.9085 8.97164C17.8529 10.0552 16.7856 11.1309 15.6948 12.1832C15.3429 12.5235 15.3312 12.7426 15.6948 13.0986C17.647 15.0231 19.5823 16.9634 21.5006 18.9193C21.8916 19.3104 22.1379 19.2752 22.4976 18.9193C23.5297 17.8553 24.5892 16.8186 25.6253 15.7664C25.7618 15.6159 25.8897 15.4579 26.0084 15.2931L25.9967 15.2891ZM19.3268 21.9978C19.2213 21.8766 19.147 21.7709 19.061 21.6849C17.0514 19.6742 15.0445 17.661 13.0401 15.6451C12.6961 15.297 12.481 15.3948 12.1878 15.6921C11.1518 16.7521 10.1079 17.8083 9.06011 18.8215C8.66915 19.1931 8.66915 19.4474 9.06011 19.8268C11.0175 21.7566 12.9606 23.6994 14.8894 25.6553C15.1787 25.9487 15.3664 26.0465 15.7143 25.7062C16.809 24.5679 17.9389 23.4647 19.0532 22.346C19.1548 22.256 19.2213 22.1269 19.3268 21.9978Z" fill="#344659"/>
<path d="M9.84602 34.2182C9.98677 34.05 10.1119 33.8701 10.2644 33.7136C11.2222 32.7279 11.2613 32.6927 12.2192 33.6628C12.7392 34.1909 12.9737 33.8075 13.2474 33.4907C13.5211 33.1738 14.2248 32.8922 13.5328 32.3171C13.4579 32.2597 13.3908 32.1926 13.3334 32.1176C13.1379 31.8477 12.5945 31.6443 12.7548 31.3353C13.01 30.8649 13.3938 30.4768 13.8612 30.2165C14.2522 30.0209 14.5024 30.5334 14.7057 30.8033C15.2179 31.48 15.5541 31.1944 16.0272 30.7407C16.5002 30.2869 16.6996 29.9114 16.0624 29.4107C15.8004 29.2034 15.2804 28.9569 15.472 28.5736C15.7193 28.1311 16.0813 27.7636 16.5198 27.5096C16.9107 27.2866 17.0671 27.8029 17.3017 28.0142C17.4404 28.1552 17.6137 28.2572 17.8042 28.3102C17.9947 28.3632 18.1957 28.3653 18.3873 28.3162C18.5788 28.2671 18.7541 28.1686 18.8957 28.0304C19.0372 27.8923 19.1401 27.7195 19.194 27.5291C19.3035 27.1888 18.9946 27.0949 18.8382 26.9306C17.9703 26.0074 17.9664 26.0114 18.8773 25.0999C19.0806 24.9004 19.2683 24.7087 19.4794 24.4975C19.843 24.1454 20.1518 23.6134 20.5819 23.4922C21.0823 23.3514 21.3247 24.032 21.7001 24.3332C22.3882 24.8926 22.5172 24.075 22.873 23.8521C23.2287 23.6291 23.4711 23.3357 22.9824 22.9758C22.909 22.9154 22.8409 22.8486 22.7791 22.7763C22.0637 22.0487 22.2279 21.2468 23.1701 20.8204C23.6041 20.6249 23.7487 21.0239 23.909 21.2116C24.4564 21.9196 24.8903 21.9627 25.5237 21.2468C25.9811 20.7305 25.942 20.4645 25.4768 20.042C25.3092 19.9152 25.1812 19.743 25.1081 19.5459C25.035 19.3487 25.0198 19.1348 25.0641 18.9293C25.1085 18.7237 25.2107 18.5351 25.3586 18.3858C25.5065 18.2364 25.694 18.1324 25.899 18.0861C26.3447 17.9414 26.4307 18.4382 26.7044 18.6025C26.9781 18.7668 27.1462 19.3183 27.4863 19.1227C27.9226 18.8855 28.2862 18.5339 28.538 18.1057C28.714 17.7653 28.2253 17.5228 27.9829 17.3233C27.3221 16.807 27.4746 16.4393 28.0141 15.9229C28.5537 15.4066 28.8156 15.2775 29.3434 15.8838C29.9963 16.6348 30.7626 16.4432 31.2083 15.4926C31.4312 15.0193 30.9346 14.9332 30.7822 14.6633C30.6297 14.3934 30.0002 14.2017 30.227 13.8027C30.4708 13.3696 30.8347 13.0163 31.2748 12.7857C31.6657 12.5979 31.8964 13.1143 32.1114 13.3763C32.5611 13.9201 32.8934 13.9436 33.3625 13.3763C33.7535 12.9108 34.207 12.551 33.4603 12.0463C32.7135 11.5417 32.6783 11.0293 33.4603 10.4816C33.7517 10.2623 34.031 10.0272 34.2969 9.77752C34.2969 10.3369 34.7935 10.5599 35.0789 10.8885C36.2791 12.2106 36.283 13.1534 35.0359 14.4091C28.1523 21.299 21.2609 28.1928 14.3617 35.0906C13.1379 36.315 12.2153 36.2915 10.9446 35.0632C10.6162 34.7463 10.3816 34.2808 9.84602 34.2182Z" fill="#B4C0CB"/>
<path d="M5.8621 22.1035C6.18269 22.1035 6.3078 22.3147 6.46027 22.4634C8.4151 24.4193 10.3347 26.3556 12.2935 28.2802C12.6844 28.6714 12.6023 28.8591 12.2622 29.1877C11.1988 30.2204 10.1432 31.261 9.13447 32.3171C8.71223 32.7631 8.45028 32.6653 8.06714 32.2741C6.16314 30.3417 4.23569 28.4288 2.31605 26.5121C2.05801 26.2539 1.8078 26.0622 2.20658 25.6789C3.34038 24.5875 4.4429 23.4531 5.56105 22.3421C5.65601 22.256 5.75658 22.1763 5.8621 22.1035Z" fill="#B4C0CB"/>
<path d="M25.9968 1.95398C26.2822 1.95398 26.3877 2.16522 26.5597 2.31387C28.5146 4.26975 30.4303 6.20216 32.3851 8.12675C32.7213 8.45925 32.7761 8.67049 32.4086 9.02646C31.3165 10.0696 30.2465 11.1388 29.1988 12.2341C28.8586 12.5901 28.6436 12.5979 28.2917 12.2341C26.3369 10.2548 24.3821 8.29887 22.4273 6.33907C22.1927 6.10828 21.9776 5.90096 22.3217 5.55672C23.4555 4.44969 24.5854 3.30354 25.7231 2.16913C25.8089 2.09073 25.9003 2.01882 25.9968 1.95398Z" fill="#B4C0CB"/>
<path d="M26.0085 15.2931C25.8943 15.4509 25.7716 15.6024 25.641 15.7469C24.5971 16.7991 23.5376 17.8358 22.5133 18.8998C22.1536 19.2909 21.9073 19.3183 21.5163 18.8998C19.5928 16.9439 17.6536 15.0036 15.6988 13.0791C15.3391 12.7231 15.3508 12.504 15.6988 12.1637C16.7895 11.1114 17.8569 10.0357 18.9125 8.95214C19.2096 8.64311 19.409 8.58443 19.7452 8.92475C21.7118 10.9511 23.7057 12.9069 25.6879 14.9098C25.8013 15.0193 25.8834 15.1445 26.0085 15.2931Z" fill="#B4C0CB"/>
<path d="M19.3269 21.9979C19.2213 22.127 19.1353 22.2561 19.0298 22.3656C17.9155 23.4844 16.7856 24.5875 15.6909 25.7258C15.343 26.0857 15.1553 25.9683 14.866 25.6749C12.9346 23.7243 10.9915 21.7814 9.03672 19.8464C8.64576 19.4552 8.64576 19.2127 9.03672 18.8411C10.1041 17.8123 11.1479 16.7561 12.184 15.7117C12.4772 15.4144 12.6922 15.3205 13.0363 15.6647C15.0302 17.6728 17.0385 19.6795 19.061 21.6849C19.1549 21.771 19.2213 21.8766 19.3269 21.9979Z" fill="#B4C0CB"/>
</svg>
