<svg width="14" height="16" viewBox="0 0 14 16" fill="none" xmlns="http://www.w3.org/2000/svg">
<g clip-path="url(#clip0_42_19)">
<path d="M13.9691 0L14 16C13.0955 15.4898 12.2297 15.0026 11.3678 14.5078C10.0098 13.7406 8.65433 12.9657 7.30149 12.1832C7.0116 12.0144 6.77968 12.1563 6.52844 12.2944L0.239647 15.931C0.172586 15.9582 0.10253 15.9775 0.0309221 15.9885L0 0.0843922C0.718844 0.420404 1.41364 0.804906 2.07951 1.2352C3.62562 2.09446 5.14467 2.98825 6.67145 3.87053C6.77478 3.93037 6.89345 3.95897 7.01292 3.95284C7.13239 3.9467 7.24745 3.9061 7.34401 3.83601C9.21222 2.75426 11.0817 1.67634 12.9525 0.602254C13.2733 0.421961 13.5826 0.230161 13.9691 0Z" fill="#B5C1CC"/>
<path d="M0.0502472 8.02877C0.386525 7.83313 0.66869 7.64517 0.958585 7.49556C2.8603 6.39846 4.76587 5.30904 6.66759 4.2081C6.74689 4.14204 6.84494 4.10211 6.94815 4.09386C7.05135 4.08561 7.15458 4.10945 7.24351 4.16207C9.39646 5.40494 11.5571 6.63246 13.7178 7.86382C13.7719 7.89834 13.8183 7.94054 13.8956 7.99808C13.6332 8.2343 13.3344 8.42727 13.0105 8.56965C11.1242 9.66291 9.23026 10.7408 7.34401 11.8341C7.25811 11.9037 7.15271 11.9455 7.04209 11.9538C6.93147 11.962 6.82097 11.9363 6.72556 11.8801C4.59967 10.6526 2.47377 9.44426 0.336277 8.22441C0.255106 8.18221 0.185532 8.12083 0.0502472 8.02877Z" fill="#324558"/>
</g>
<defs>
<clipPath id="clip0_42_19">
<rect width="14" height="16" fill="white"/>
</clipPath>
</defs>
</svg>
