<svg width="31" height="30" viewBox="0 0 17 17" fill="none" xmlns="http://www.w3.org/2000/svg">
<path d="M9.97191 8.21195C10.1638 8.07996 10.35 7.93916 10.5535 7.82184C12.2199 6.85977 13.8891 5.90356 15.5555 4.93562C15.7154 4.84176 15.9335 4.80363 16.015 4.57191C13.4238 3.06134 10.8356 1.57423 8.25613 0.0724601C7.98858 -0.0829968 7.82282 0.0431286 7.62216 0.157521L0.290811 4.39885C0.194843 4.45458 0.0552541 4.47512 0 4.66577C1.55293 5.55451 3.10877 6.45206 4.65298 7.3496C5.14179 7.58636 5.60393 7.87548 6.03142 8.21195C5.79614 8.22715 5.571 8.31409 5.38582 8.46126C3.71947 9.4204 2.06767 10.403 0.386779 11.3387C-0.0930595 11.6056 0.0959677 11.72 0.404227 11.9048C2.52715 13.122 4.67915 14.2865 6.74972 15.5859C7.67159 16.1725 8.33755 16.1725 9.26815 15.5859C11.3329 14.2777 13.4907 13.125 15.6078 11.9018C15.7358 11.8285 15.9452 11.7699 15.9364 11.5909C15.9277 11.412 15.7271 11.4208 15.6049 11.3504C14.4562 10.6817 13.3221 9.9865 12.153 9.35588C11.4289 8.9511 10.7862 8.40553 9.97191 8.21195Z" fill="#FEFEFE"/>
<path d="M6.03142 8.21195C5.60393 7.87547 5.14179 7.58636 4.65298 7.3496C3.10877 6.45206 1.55293 5.55451 0 4.6599C0.0465298 4.46925 0.186119 4.44872 0.290811 4.39299L7.62216 0.157521C7.82282 0.0431286 7.98858 -0.0829968 8.25613 0.07246C10.8356 1.57423 13.4238 3.06134 16.0121 4.55724C15.9306 4.78896 15.7212 4.82709 15.5526 4.92095C13.8862 5.88889 12.217 6.8451 10.5506 7.80717C10.35 7.9245 10.1638 8.06529 9.969 8.19728C9.40917 8.43245 8.87347 8.72226 8.36954 9.06256C8.25927 9.13659 8.12977 9.17609 7.9973 9.17609C7.86484 9.17609 7.73533 9.13659 7.62506 9.06256C7.0987 8.76631 6.62177 8.37327 6.03142 8.21195Z" fill="#334659"/>
<path d="M6.03142 8.21194C6.61305 8.385 7.0987 8.77804 7.62798 9.07136C7.73824 9.14539 7.86775 9.18489 8.00022 9.18489C8.13268 9.18489 8.26219 9.14539 8.37245 9.07136C8.87662 8.73308 9.41231 8.44525 9.97191 8.21194C10.7862 8.4202 11.426 8.96576 12.153 9.35587C13.3162 9.9865 14.4562 10.6817 15.6049 11.3504C15.7271 11.4208 15.9277 11.4443 15.9364 11.5909C15.9452 11.7376 15.7358 11.8285 15.6078 11.9018C13.4907 13.125 11.3329 14.2777 9.26815 15.5859C8.33756 16.1725 7.6716 16.1725 6.74973 15.5859C4.67915 14.2748 2.52715 13.1103 0.404231 11.893C0.0814307 11.7083 -0.0930559 11.5997 0.386782 11.3269C2.06767 10.3913 3.71948 9.40867 5.38582 8.44953C5.57239 8.30656 5.79741 8.22375 6.03142 8.21194Z" fill="#B5C1CC"/>
</svg>
