<svg width="30" height="31" viewBox="0 0 30 31" fill="none" xmlns="http://www.w3.org/2000/svg">
<path d="M18.6833 15.3858C19.0429 15.1385 19.3916 14.8747 19.773 14.6549C22.895 12.8524 26.0225 11.0608 29.1446 9.24732C29.4442 9.07146 29.8529 9.00002 30.0054 8.56588C25.1507 5.73569 20.3015 2.94946 15.4686 0.13576C14.9673 -0.155502 14.6567 0.0808052 14.2808 0.29513L0.54486 8.24164C0.365056 8.34606 0.103523 8.38452 0 8.74173C2.90955 10.4069 5.82455 12.0885 8.71776 13.7701C9.63359 14.2137 10.4995 14.7554 11.3004 15.3858C10.8596 15.4143 10.4378 15.5772 10.0908 15.8529C6.96876 17.65 3.87396 19.491 0.724664 21.244C-0.174355 21.7441 0.179804 21.9584 0.757356 22.3047C4.73483 24.5853 8.7668 26.767 12.6462 29.2015C14.3734 30.3006 15.6211 30.3006 17.3647 29.2015C21.2332 26.7505 25.2761 24.5908 29.2426 22.2992C29.4824 22.1618 29.8747 22.0519 29.8583 21.7166C29.842 21.3814 29.466 21.3979 29.2372 21.266C27.085 20.013 24.96 18.7106 22.7697 17.5291C21.413 16.7707 20.2089 15.7485 18.6833 15.3858Z" fill="#FEFEFE"/>
<path d="M11.3004 15.3858C10.4995 14.7554 9.63359 14.2137 8.71776 13.7701C5.82455 12.0885 2.90955 10.4069 0 8.73074C0.0871776 8.37353 0.34871 8.33506 0.54486 8.23065L14.2808 0.29513C14.6567 0.0808052 14.9673 -0.155502 15.4686 0.13576C20.3015 2.94946 25.1507 5.73569 30 8.5384C29.8474 8.97254 29.4551 9.04399 29.1391 9.21984C26.0171 11.0334 22.8896 12.8249 19.7675 14.6274C19.3916 14.8472 19.0429 15.111 18.6778 15.3583C17.6289 15.7989 16.6252 16.3419 15.6811 16.9795C15.4745 17.1182 15.2318 17.1922 14.9837 17.1922C14.7355 17.1922 14.4928 17.1182 14.2862 16.9795C13.3 16.4245 12.4065 15.6881 11.3004 15.3858Z" fill="#334659"/>
<path d="M11.3004 15.3858C12.3901 15.71 13.3 16.4464 14.2917 16.996C14.4983 17.1347 14.7409 17.2087 14.9891 17.2087C15.2373 17.2087 15.4799 17.1347 15.6865 16.996C16.6311 16.3622 17.6348 15.8229 18.6833 15.3858C20.2089 15.776 21.4076 16.7981 22.7697 17.5291C24.9491 18.7106 27.085 20.013 29.2372 21.266C29.466 21.3979 29.842 21.4419 29.8583 21.7166C29.8747 21.9914 29.4824 22.1618 29.2426 22.2992C25.2761 24.5908 21.2332 26.7505 17.3647 29.2015C15.6211 30.3006 14.3734 30.3006 12.6462 29.2015C8.76679 26.745 4.73483 24.5633 0.757351 22.2827C0.152556 21.9365 -0.17436 21.7331 0.724659 21.222C3.87395 19.469 6.96876 17.628 10.0908 15.8309C10.4404 15.5631 10.862 15.4079 11.3004 15.3858Z" fill="#B5C1CC"/>
</svg>
