<svg width="21" height="22" viewBox="0 0 21 22" fill="none" xmlns="http://www.w3.org/2000/svg">
<path d="M13.0759 10.7797C13.3276 10.6066 13.5716 10.422 13.8386 10.2681C16.0236 9.0066 18.2125 7.75275 20.3975 6.48352C20.6072 6.36044 20.8932 6.31045 21 6.0066C17.6023 4.02583 14.2085 2.07582 10.826 0.106589C10.4752 -0.0972577 10.2579 0.0681272 9.99473 0.218127L0.381333 5.77968C0.255493 5.85275 0.0724532 5.87968 0 6.12968C2.03632 7.29506 4.07645 8.47199 6.10133 9.64891C6.74229 9.95937 7.34828 10.3385 7.90884 10.7797C7.60033 10.7996 7.3051 10.9136 7.06228 11.1066C4.87725 12.3643 2.71128 13.6528 0.507173 14.8797C-0.122026 15.2297 0.12584 15.3797 0.530053 15.622C3.31378 17.2182 6.13565 18.7451 8.85073 20.4489C10.0596 21.2182 10.9328 21.2182 12.1531 20.4489C14.8605 18.7335 17.69 17.222 20.4661 15.6182C20.6339 15.522 20.9085 15.4451 20.897 15.2105C20.8856 14.9758 20.6225 14.9874 20.4623 14.8951C18.9561 14.0182 17.4689 13.1066 15.9359 12.2797C14.9864 11.7489 14.1436 11.0335 13.0759 10.7797Z" fill="#FEFEFE"/>
<path d="M7.90884 10.7797C7.34828 10.3385 6.74229 9.95937 6.10133 9.64891C4.07645 8.47199 2.03632 7.29506 0 6.12198C0.0610133 5.87198 0.244053 5.84506 0.381333 5.77198L9.99473 0.218127C10.2579 0.0681272 10.4752 -0.0972577 10.826 0.106589C14.2085 2.07582 17.6023 4.02583 20.9962 5.98737C20.8894 6.29121 20.6149 6.34121 20.3937 6.46429C18.2086 7.73352 16.0198 8.98737 13.8348 10.2489C13.5716 10.4028 13.3276 10.5874 13.0721 10.7605C12.338 11.0688 11.6355 11.4488 10.9748 11.8951C10.8302 11.9921 10.6603 12.0439 10.4867 12.0439C10.313 12.0439 10.1431 11.9921 9.99855 11.8951C9.30833 11.5066 8.68295 10.9912 7.90884 10.7797Z" fill="#334659"/>
<path d="M7.90884 10.7797C8.67151 11.0066 9.30833 11.522 10.0024 11.9066C10.1469 12.0037 10.3168 12.0555 10.4905 12.0555C10.6642 12.0555 10.834 12.0037 10.9786 11.9066C11.6397 11.463 12.3421 11.0856 13.0759 10.7797C14.1436 11.0528 14.9826 11.7681 15.9359 12.2797C17.4612 13.1066 18.9561 14.0181 20.4623 14.8951C20.6225 14.9874 20.8856 15.0181 20.897 15.2105C20.9085 15.4028 20.6339 15.522 20.4661 15.6181C17.69 17.222 14.8605 18.7335 12.1531 20.4489C10.9328 21.2182 10.0596 21.2182 8.85073 20.4489C6.13564 18.7297 3.31378 17.2028 0.530051 15.6066C0.106771 15.3643 -0.122028 15.222 0.507171 14.8643C2.71127 13.6374 4.87725 12.3489 7.06228 11.0912C7.30692 10.9037 7.60199 10.7952 7.90884 10.7797Z" fill="#B5C1CC"/>
</svg>
