<svg width="40" height="40" viewBox="0 0 40 40" fill="none" xmlns="http://www.w3.org/2000/svg">
<path d="M31.3737 32.4242C25.5025 34.8809 21.2634 36.6578 20.8206 36.8609C20.6329 36.95 20.4281 36.9975 20.2202 37C20.0229 36.9975 19.8281 36.9556 19.6473 36.8768C16.0268 35.4306 12.411 33.9753 8.78143 32.5428C8.55223 32.4635 8.34305 32.3353 8.16841 32.1671C7.99378 31.9989 7.85789 31.7947 7.77018 31.5688C6.23465 27.9981 4.68772 24.4283 3.12937 20.8592C2.9011 20.3482 3.00839 19.9171 3.19329 19.4517C4.61619 15.9024 6.03377 12.3523 7.44603 8.80142C7.52164 8.57487 7.64667 8.36792 7.81208 8.19553C7.97749 8.02314 8.17915 7.88962 8.40249 7.8046C12.0252 6.27856 15.6274 4.70234 19.2249 3.12156C19.3908 3.04155 19.5726 3 19.7568 3C19.941 3 20.1228 3.04155 20.2887 3.12156C23.9822 4.60122 27.6764 6.06338 31.3714 7.50806C31.5794 7.59356 31.7665 7.72275 31.9201 7.88687C32.0737 8.05099 32.1902 8.2462 32.2617 8.45926C33.7842 12.004 35.3046 15.5443 36.8545 19.0822C36.9318 19.2524 36.9796 19.4344 36.9961 19.6205C37.0173 19.9514 36.9528 20.2821 36.8089 20.5809C36.5418 21.1603 34.9462 25.3141 32.7433 31.0555C32.4565 31.6546 31.9732 32.1376 31.3737 32.4242ZM10.3474 19.4016V19.3149C9.85431 19.3149 9.36124 19.3149 8.86817 19.3149C8.33401 19.3149 7.68571 19.2236 7.66745 19.9855C7.64691 20.8478 8.36597 20.7223 8.91839 20.7177C9.94562 20.7177 10.9729 20.7177 11.9932 20.6356C12.5776 20.5946 12.8379 20.7976 12.9063 21.3541C13.0106 22.3413 13.3929 23.2786 14.0089 24.0572C14.4654 24.6275 14.3239 24.9423 13.8354 25.3597C13.0273 26.044 12.2694 26.7968 11.4956 27.5222C11.1372 27.8598 10.8701 28.2658 11.2902 28.6946C11.7467 29.1508 12.1553 28.9227 12.5365 28.4962C13.2693 27.675 14.0477 26.8994 14.7736 26.0714C15.1503 25.6448 15.4584 25.5992 15.915 25.9687C16.722 26.6081 17.6925 27.008 18.7159 27.123C19.2752 27.196 19.4646 27.4446 19.4213 28.0354C19.3414 29.1303 19.3277 30.2321 19.3345 31.3338C19.3345 31.7353 19.1679 32.3375 19.9189 32.3078C20.5352 32.285 20.7635 31.9201 20.7407 31.3247C20.6996 30.2252 20.7156 29.1235 20.6425 28.0263C20.6037 27.4492 20.7886 27.1982 21.3593 27.1298C22.3818 27.0067 23.3483 26.5962 24.1465 25.9459C24.6807 25.5171 24.9615 25.695 25.3358 26.1261C26.0572 26.9565 26.8105 27.7594 27.5775 28.5464C27.9085 28.884 28.3559 29.1554 28.7622 28.6992C29.1343 28.2818 28.9403 27.8666 28.5591 27.513C27.7259 26.7375 26.9292 25.9163 26.0663 25.1795C25.6737 24.8419 25.571 24.6343 25.9179 24.1872C26.58 23.3504 26.9979 22.3471 27.1255 21.288C27.194 20.7177 27.4633 20.5466 28.0386 20.6037C29.059 20.6904 30.0931 20.6904 31.1134 20.7154C31.643 20.7269 32.2754 20.7953 32.3096 20.0311C32.3438 19.267 31.7207 19.2943 31.1682 19.3057C30.1068 19.3286 29.0407 19.3194 27.9724 19.3924C27.3835 19.4312 27.1643 19.2328 27.0913 18.6625C26.9666 17.6395 26.5568 16.6721 25.9088 15.8705C25.5207 15.3914 25.628 15.1474 26.0412 14.7892C26.8995 14.0456 27.7144 13.2472 28.5522 12.4694C28.9266 12.1227 29.148 11.7075 28.7189 11.2992C28.2897 10.8909 27.8765 11.0985 27.5273 11.4726C26.8561 12.1934 26.1736 12.9073 25.5299 13.6533C25.0436 14.219 24.6464 14.5976 23.8863 13.943C23.1677 13.3669 22.2934 13.0183 21.3753 12.9416C20.7475 12.864 20.5558 12.5903 20.6037 11.9675C20.6836 10.9479 20.6745 9.91459 20.6996 8.89723C20.7156 8.33837 20.6996 7.73845 19.9509 7.7567C19.266 7.7567 19.2843 8.35205 19.2934 8.85617C19.314 9.95565 19.314 11.0574 19.3756 12.1546C19.403 12.6405 19.2295 12.8389 18.773 12.9165C17.7189 13.0673 16.7192 13.479 15.8648 14.114C15.3785 14.4744 15.0863 14.3764 14.7234 13.9658C13.9747 13.1104 13.1985 12.2778 12.4178 11.4566C12.0617 11.0779 11.6143 10.9548 11.2308 11.3768C10.8861 11.7508 11.0436 12.1455 11.3929 12.4694C11.8745 12.8754 12.3608 13.3088 12.8173 13.7559C13.3378 14.2509 14.0865 14.6797 14.2783 15.2842C14.4084 15.6948 13.7464 16.3518 13.4473 16.9015C13.356 17.068 13.2898 17.2482 13.2031 17.417C12.8812 18.0466 13.1506 19.0434 12.4863 19.3445C11.8859 19.6137 11.0687 19.4016 10.3474 19.4016Z" fill="#334659"/>
<path d="M17.9238 19.7917C16.8737 19.7141 15.8237 19.5635 14.7759 19.5795C13.8628 19.5795 13.7418 19.2305 14.0203 18.4983C14.0591 18.3934 14.0774 18.2702 14.1116 18.1698C14.7964 15.9617 15.1411 15.8614 16.7893 17.3578C17.0012 17.5135 17.1998 17.6867 17.3828 17.8756C17.958 18.6169 18.5241 18.8838 19.4601 18.3181C20.1951 17.8619 20.969 18.2725 21.4643 18.8952C21.7405 19.2196 21.8862 19.635 21.8731 20.0608C21.86 20.4865 21.6891 20.8922 21.3935 21.1991C20.8411 21.8355 20.0239 22.1457 19.2683 21.6142C18.5607 21.1192 18.1817 21.3359 17.6841 21.8811C17.1865 22.4263 16.5267 22.862 16.0017 23.4049C15.4767 23.9478 15.0886 23.9979 14.7462 23.2657C14.6663 23.0969 14.5545 22.9395 14.4677 22.773C13.4519 20.8615 13.6231 20.5627 15.7004 20.4326C16.4514 20.3847 17.239 20.4326 17.9466 20.1338L17.9238 19.7917Z" fill="#334659"/>
<path d="M21.0352 26.1535C20.5969 26.2151 20.5147 25.9824 20.4964 25.6198C20.4485 24.6777 20.3914 23.7333 20.3047 22.7935C20.2613 22.3373 20.4371 22.1548 20.8503 21.9655C21.2634 21.7762 21.5351 21.8469 21.7999 22.1936C22.124 22.6087 22.4847 22.9965 22.8385 23.3911C24.2082 24.9103 24.2082 24.9149 22.3203 25.7224C21.9003 25.9026 21.4597 26.0144 21.0352 26.1535Z" fill="#334659"/>
<path d="M19.718 22.8893C19.6632 23.7812 19.5833 24.6891 19.5582 25.5969C19.5445 26.0532 19.387 26.2219 18.9465 26.1147C18.7182 26.06 18.5036 26.0098 18.2867 25.9437C15.988 25.2593 15.8899 24.94 17.4284 23.1585C17.6773 22.8733 17.9398 22.5973 18.1772 22.3031C18.4443 21.9723 18.6337 21.6803 19.1884 21.9518C19.6495 22.1753 19.839 22.3875 19.718 22.8893Z" fill="#334659"/>
<path d="M19.5468 15.8066C19.6085 16.4156 19.6153 16.8354 19.6998 17.2391C19.8025 17.7364 19.5126 17.8618 19.1428 18.0489C18.773 18.2359 18.5333 18.188 18.2731 17.8801C17.6681 17.1593 17.0678 16.4316 16.4126 15.7587C16.0223 15.3595 16.1273 15.1474 16.5405 14.9238C16.6409 14.8691 16.7254 14.7915 16.8212 14.7299C17.5289 14.2737 18.4032 13.7924 19.1245 13.9863C20.0992 14.2486 19.1747 15.3641 19.5468 15.8066Z" fill="#334659"/>
<path d="M22.6536 19.7186C22.2519 19.8373 22.1628 19.5362 21.9962 19.2054C21.8296 18.8746 21.7542 18.6009 22.0852 18.3181C22.834 17.6748 23.5781 17.027 24.3086 16.3632C24.5985 16.0986 24.8131 16.0735 25.0163 16.443C25.087 16.573 25.2012 16.6825 25.2742 16.8126C25.6851 17.5448 26.2763 18.4093 26.0435 19.1301C25.7513 20.0425 24.6602 19.3582 23.9502 19.5863C23.5599 19.7027 23.1239 19.6753 22.6536 19.7186Z" fill="#334659"/>
<path d="M20.3503 17.1593C20.396 16.2605 20.469 15.3595 20.4759 14.4585C20.4759 13.9133 20.7042 13.8038 21.1607 13.9658C21.268 14.0023 21.389 14.016 21.4917 14.0433C24.0027 14.6478 24.2013 15.1542 22.4527 16.9813C22.0533 17.3988 21.9277 18.35 20.9872 18.0671C20.5375 17.9371 20.0353 17.8253 20.3503 17.1593Z" fill="#334659"/>
<path d="M23.1421 20.3345C23.7724 20.4176 24.4081 20.4512 25.0436 20.4349C26.048 20.3528 26.3128 20.704 25.9567 21.6096C25.936 21.6847 25.9193 21.7609 25.9065 21.8377C25.2856 23.9751 24.8633 24.1188 23.2494 22.6726C22.9116 22.3738 22.5851 22.059 22.2336 21.7784C21.882 21.4979 21.8295 21.1922 22.0213 20.72C22.213 20.2478 22.5212 20.2501 23.1421 20.3345Z" fill="#334659"/>
</svg>
