<svg width="60" height="61" viewBox="0 0 60 61" fill="none" xmlns="http://www.w3.org/2000/svg">
<path d="M43.7455 0.00519233C48.8506 0.00519233 53.9597 0.00519233 59.0688 0.00519233C59.7998 0.00519233 60.0053 0.19093 60.0013 0.933881C59.9776 11.1218 60.0606 21.3137 59.946 31.5055C59.9025 35.1966 58.9265 38.7572 57.425 42.1756C55.7611 45.8959 53.3697 49.2456 50.3916 52.0276C48.653 53.6548 46.7176 55.0581 44.6306 56.2047C39.3906 59.1493 33.3807 60.435 27.3948 59.8918C24.5326 59.6309 21.7202 58.9752 19.0377 57.9435C16.0273 56.751 13.2262 55.0861 10.7399 53.0116C7.45723 50.2688 4.80253 46.8523 2.95571 42.9936C1.61689 40.2214 0.729817 37.253 0.328066 34.2007C0.0755355 32.5336 -0.0315544 30.8477 0.00800728 29.1621C0.121714 25.2843 0.988677 21.4657 2.56058 17.919C4.47933 13.5578 7.41142 9.71766 11.113 6.71805C14.8146 3.71844 19.1788 1.64599 23.8425 0.673058C26.2811 0.186119 28.7649 -0.0377834 31.2513 0.00519233C35.416 0.0486629 39.5807 0.00519233 43.7455 0.00519233Z" fill="#EEF3F8"/>
<path d="M52 36.5879C51.8973 36.5571 51.9306 36.6494 51.9251 36.6858C51.7697 37.9722 51.0926 38.9651 50.1518 39.7901C49.5237 40.3171 48.8329 40.7633 48.0955 41.1186C47.9939 41.1615 47.8834 41.1788 47.7736 41.1689L24.0805 41.222L16.6601 41.25C16.4765 41.2525 16.2938 41.2251 16.1189 41.1689C12.961 40.1481 10.974 38.0394 10.2442 34.7616C10.1574 34.3255 10.0953 33.8848 10.0583 33.4416C10.0572 33.4343 10.0543 33.4275 10.0499 33.4216C10.0456 33.4158 10.0399 33.4111 10.0333 33.408C10.0333 33.408 10.0111 33.408 10 33.4276V32.06H10.0333H10.0472C10.0632 31.9965 10.0753 31.932 10.0833 31.867C10.2057 30.3314 10.6807 28.8454 11.4708 27.5265C12.2059 26.222 13.3209 25.1764 14.6648 24.5312C16.1708 23.851 17.8722 23.7515 19.4462 24.2515C19.6044 24.2963 19.6543 24.2823 19.6904 24.1089C19.9152 22.9901 20.2778 21.9041 20.7699 20.8759C22.3017 17.7967 24.5411 15.6013 28.0821 15.0783C28.1181 15.0783 28.1931 15.0783 28.1514 15H29.7859V15.0168V15.0336C29.8333 15.0706 29.8927 15.0885 29.9524 15.0839C31.0732 15.2288 32.1511 15.61 33.116 16.2026C34.8281 17.2318 36.0852 18.7029 37.087 20.4144C37.4249 21.0017 37.7297 21.6077 38 22.2295L38.3053 21.9107C39.4536 20.8455 40.932 20.2131 42.49 20.1208C45.018 19.9893 47.1409 20.9402 48.8198 22.8C51.1009 25.3171 51.5782 28.2592 50.507 31.4699C50.4702 31.5609 50.4565 31.6597 50.4671 31.7574C50.4778 31.855 50.5125 31.9485 50.5681 32.0292C51.2715 33.0846 51.7331 34.2845 51.9195 35.5419C51.9195 35.5783 51.8862 35.6733 51.9917 35.6426L52 36.5879ZM49.3138 33.9366C49.1749 33.4521 48.9512 32.9965 48.6533 32.5914C48.5274 32.4273 48.4482 32.2319 48.4242 32.0259C48.4003 31.8199 48.4325 31.6112 48.5173 31.4223C49.3499 28.8773 49.003 26.5001 47.3102 24.3942C46.7602 23.6892 46.0751 23.1031 45.2956 22.6707C44.5161 22.2382 43.6582 21.9684 42.773 21.8771C40.9166 21.6702 39.2959 22.2687 37.8945 23.4964C37.839 23.5468 37.7974 23.6251 37.7031 23.6279L37.5976 23.4041C36.9997 22.1196 36.1793 20.9529 35.175 19.9586C33.5655 18.3924 31.6646 17.4779 29.4252 17.408C28.3036 17.3683 27.1856 17.5554 26.137 17.9584C25.0884 18.3615 24.1306 18.9721 23.3201 19.7544C21.7685 21.2169 20.7025 23.1263 20.2676 25.222C20.2315 25.3786 20.1982 25.4346 20.0151 25.3842C18.9649 25.0744 17.8545 25.034 16.7849 25.2668C15.9495 25.4519 15.1599 25.8058 14.464 26.3072C13.7681 26.8086 13.1803 27.4469 12.7362 28.1837C11.609 29.9293 11.1558 32.0308 11.4624 34.0904C11.4916 34.3917 11.5492 34.6895 11.6345 34.9798C12.084 36.7109 12.9637 38.1568 14.4456 39.1748C15.4551 39.9107 16.6743 40.2964 17.9199 40.2739C18.9661 40.246 20.0095 40.2544 21.0557 40.2516L45.8727 40.1872C45.9658 40.1945 46.0595 40.187 46.1502 40.1649C46.936 39.9064 47.6665 39.5013 48.3037 38.9707C49.5219 37.8911 50.0242 36.5599 49.6496 34.9406C49.5997 34.588 49.4859 34.2477 49.3138 33.9366Z" fill="#324558"/>
<path d="M49.3138 33.9366C49.4884 34.249 49.6042 34.5913 49.6551 34.9462C50.0297 36.5655 49.5274 37.8967 48.3092 38.9763C47.672 39.5068 46.9415 39.9119 46.1558 40.1705C46.065 40.1926 45.9714 40.2001 45.8783 40.1928L21.0612 40.2572C20.0151 40.2572 18.9716 40.2572 17.9255 40.2795C16.676 40.3044 15.4525 39.9186 14.44 39.1804C12.9582 38.1568 12.0785 36.7109 11.6289 34.9854C11.5436 34.6951 11.486 34.3973 11.4569 34.096C11.4769 34.0408 11.5075 33.9901 11.547 33.9469C11.5866 33.9037 11.6342 33.8688 11.6872 33.8443C12.0924 33.6206 12.492 33.3828 12.8971 33.1591C15.5445 31.6772 18.3444 30.4909 21.2472 29.6212C21.9104 29.4283 22.5792 29.2549 23.2452 29.0619C23.3895 29.1486 23.5227 29.2409 23.6781 29.3248C23.7181 29.3432 23.7496 29.3764 23.7661 29.4174C23.7827 29.4585 23.7829 29.5044 23.7669 29.5457C23.7156 29.7286 23.6812 29.9158 23.6642 30.1051C23.6642 30.2757 23.5726 30.3316 23.4311 30.3847C23.1536 30.4659 22.8761 30.5637 22.5986 30.6448C22.4932 30.6756 22.4543 30.7259 22.4682 30.835C22.5348 31.3189 22.5986 31.8027 22.6597 32.2893C22.6735 32.4068 22.7263 32.4487 22.8456 32.4487C23.1231 32.4487 23.4006 32.4655 23.6614 32.4655C23.712 32.4597 23.7627 32.4736 23.8035 32.5043C23.8442 32.5349 23.8718 32.5801 23.8807 32.6305C23.9365 32.8214 24.0051 33.0083 24.086 33.1899C24.1125 33.235 24.1218 33.2882 24.112 33.3397C24.1023 33.3912 24.0743 33.4374 24.0333 33.4695C23.8002 33.6961 23.5837 33.9366 23.3534 34.1659C23.3351 34.1776 23.3198 34.1934 23.3087 34.2121C23.2976 34.2308 23.2909 34.2518 23.2893 34.2736C23.2877 34.2953 23.2912 34.3171 23.2994 34.3373C23.3076 34.3574 23.3204 34.3754 23.3368 34.3897C23.6328 34.7756 23.9241 35.1662 24.2109 35.5615C24.2914 35.6761 24.3552 35.6733 24.4606 35.6034C24.6965 35.4496 24.9407 35.3238 25.1738 35.156C25.1953 35.1368 25.2205 35.1224 25.2478 35.1136C25.2751 35.1049 25.304 35.102 25.3324 35.1052C25.3609 35.1083 25.3885 35.1175 25.4132 35.132C25.438 35.1465 25.4595 35.1661 25.4763 35.1895C25.631 35.338 25.795 35.4763 25.9675 35.6034C26.0137 35.631 26.0485 35.6745 26.0654 35.7259C26.0822 35.7774 26.08 35.8332 26.0591 35.8831C25.9758 36.1823 25.912 36.4872 25.8343 36.7892C25.8038 36.9123 25.8149 36.9934 25.9508 37.0493C26.3643 37.2255 26.7833 37.4101 27.1802 37.6087C27.2008 37.6236 27.2245 37.6335 27.2495 37.6376C27.2746 37.6417 27.3002 37.6399 27.3244 37.6323C27.3486 37.6247 27.3708 37.6115 27.3891 37.5938C27.4074 37.5762 27.4214 37.5544 27.4299 37.5304C27.5798 37.2843 27.7463 37.0465 27.8906 36.7976C27.9711 36.6578 28.0515 36.5963 28.2236 36.6522C28.4045 36.7039 28.5907 36.7349 28.7786 36.7445C28.8295 36.7445 28.8786 36.7629 28.9173 36.7962C28.956 36.8295 28.9816 36.8756 28.9895 36.9263C29.0811 37.2451 29.1893 37.5611 29.267 37.8828C29.3058 38.0058 29.3586 38.0673 29.5001 38.045C29.958 37.9722 30.4158 37.9051 30.8876 37.8436C31.0208 37.8268 31.0486 37.7597 31.0486 37.6366C31.0486 37.3402 31.0486 37.0437 31.0486 36.7473C31.0446 36.7221 31.0457 36.6964 31.0516 36.6716C31.0576 36.6469 31.0684 36.6236 31.0833 36.603C31.0983 36.5825 31.1172 36.5651 31.1388 36.552C31.1605 36.5388 31.1845 36.5301 31.2095 36.5263C31.3938 36.4744 31.5738 36.408 31.7479 36.3278C31.7966 36.2966 31.8551 36.2848 31.912 36.2946C31.9689 36.3044 32.0202 36.3352 32.0559 36.3809C32.2945 36.6186 32.5526 36.8424 32.794 37.0829C32.809 37.1031 32.8285 37.1196 32.8509 37.1309C32.8733 37.1422 32.898 37.1481 32.9231 37.1481C32.9481 37.1481 32.9729 37.1422 32.9953 37.1309C33.0177 37.1196 33.0371 37.1031 33.0521 37.0829C33.4221 36.7827 33.7921 36.4891 34.1621 36.2019C34.2731 36.118 34.2676 36.0509 34.201 35.9446C34.0428 35.6845 33.8985 35.4188 33.7403 35.1587C33.7221 35.1393 33.7083 35.1161 33.6998 35.0907C33.6914 35.0653 33.6885 35.0384 33.6914 35.0118C33.6943 34.9852 33.7029 34.9595 33.7166 34.9366C33.7304 34.9137 33.7489 34.8941 33.7709 34.8791C33.9002 34.7479 34.0182 34.6056 34.1233 34.454C34.1577 34.3982 34.2105 34.3565 34.2724 34.3361C34.3343 34.3156 34.4013 34.3177 34.4618 34.3421C34.7393 34.4232 35.0474 34.4875 35.336 34.5686C35.4636 34.605 35.5385 34.5882 35.5885 34.4512C35.7578 34.0009 35.9354 33.5534 36.113 33.106C36.1252 33.0878 36.1331 33.067 36.1358 33.0452C36.1386 33.0234 36.1363 33.0012 36.129 32.9805C36.1217 32.9598 36.1096 32.9412 36.0938 32.926C36.078 32.9109 36.0589 32.8997 36.038 32.8934C35.8382 32.7815 35.6523 32.6445 35.447 32.5494C35.2416 32.4543 35.1112 32.3005 35.2166 32.0376C35.2453 31.9301 35.2575 31.8188 35.2527 31.7076C35.2504 31.6448 35.2691 31.5831 35.3059 31.5324C35.3426 31.4816 35.3953 31.4448 35.4553 31.4279C35.8991 31.2307 36.3013 30.9497 36.6402 30.6001C37.0567 30.1585 37.3763 29.6334 37.5782 29.0591C37.6583 29.0669 37.738 29.079 37.8168 29.0955C41.2387 29.9192 44.5307 31.2171 47.5988 32.9521C48.1677 33.2738 48.7393 33.6094 49.3138 33.9366ZM39.6539 33.0976C39.6539 33.0976 39.7177 33.0976 39.7261 33.0976C39.8114 32.9602 39.8794 32.8127 39.9286 32.6585C39.9536 32.5578 39.8121 32.5214 39.7399 32.4683C39.6636 32.4258 39.5983 32.3657 39.5494 32.293C39.5004 32.2204 39.4691 32.1371 39.458 32.0499C39.4469 31.9627 39.4564 31.8742 39.4856 31.7914C39.5148 31.7086 39.563 31.6339 39.6262 31.5734C39.8371 31.3244 39.8287 31.3328 39.6262 31.0588C39.607 31.0243 39.5808 30.9943 39.5493 30.9708C39.5179 30.9473 39.4818 30.9308 39.4435 30.9223C39.4052 30.9139 39.3656 30.9137 39.3273 30.9218C39.2889 30.9299 39.2527 30.9461 39.221 30.9693C39.1322 31.0224 39.0267 31.1147 38.9185 31.0671C38.6937 30.9665 38.4412 30.9021 38.394 30.5749C38.3607 30.3288 38.3274 30.3428 37.8723 30.4043C37.6725 30.4295 37.753 30.5693 37.7364 30.684C37.7197 30.7987 37.7919 30.9441 37.6836 31.0168C37.47 31.1594 37.2702 31.3944 36.9621 31.207C36.9462 31.1943 36.9279 31.1849 36.9083 31.1794C36.8887 31.174 36.8682 31.1725 36.8481 31.1751C36.8279 31.1777 36.8085 31.1843 36.7909 31.1946C36.7733 31.2049 36.7579 31.2186 36.7457 31.235C36.4876 31.5538 36.4987 31.6768 36.8178 31.909C36.9223 32.0062 36.9881 32.1385 37.0029 32.281C37.0177 32.4236 36.9805 32.5667 36.8983 32.6837C36.6541 32.9633 36.6541 32.9633 36.8817 33.243L36.9094 33.2766C36.9816 33.4108 37.0704 33.4136 37.1869 33.3381C37.3035 33.2626 37.3895 33.1591 37.4977 33.2066C37.7336 33.3129 38.0139 33.3605 38.0749 33.7073C38.1193 33.959 38.1582 33.9478 38.5744 33.903C38.777 33.8806 38.727 33.7296 38.7354 33.6233C38.7798 33.1787 39.0378 32.9801 39.4652 33.0836L39.6539 33.0976Z" fill="#B5C1CC"/>
<path d="M49.3138 33.9366C48.7393 33.6094 48.1677 33.2738 47.5905 32.9521C44.5223 31.2171 41.2304 29.9192 37.8085 29.0955C37.7297 29.079 37.65 29.0669 37.5699 29.0591C37.5837 28.9892 37.5976 28.9165 37.6143 28.8438C37.786 28.1993 37.7897 27.521 37.6249 26.8747C37.46 26.2284 37.1323 25.636 36.6735 25.1549C36.3794 24.8277 36.3738 24.8333 36.6735 24.5088C36.7374 24.4361 36.7707 24.3914 36.8789 24.4753C36.9871 24.5592 37.0565 24.383 37.1564 24.3299C37.2563 24.2767 37.1564 24.2208 37.1231 24.1816L36.5681 23.7006C36.4099 23.5664 36.3849 23.7705 36.2906 23.8153C36.1962 23.86 36.1657 23.9299 36.2712 24.0026C36.4404 24.1173 36.3905 24.218 36.2545 24.3187C36.2055 24.3522 36.1623 24.3938 36.1269 24.4417C36.0408 24.5592 35.9603 24.5592 35.8493 24.4809C35.4435 24.2234 34.9889 24.0538 34.5146 23.9831C34.3647 23.9635 34.2787 23.9187 34.2981 23.7397C34.3134 23.5695 34.3134 23.3982 34.2981 23.2279C34.2981 23.0937 34.3286 23.0322 34.4674 23.0546C34.5116 23.0601 34.5564 23.0601 34.6006 23.0546C34.637 23.056 34.6734 23.0502 34.7076 23.0375C34.7419 23.0248 34.7733 23.0055 34.8001 22.9805C34.8269 22.9556 34.8485 22.9256 34.8638 22.8922C34.8791 22.8589 34.8877 22.8228 34.8892 22.7861C34.8906 22.7493 34.8849 22.7127 34.8723 22.6782C34.8597 22.6437 34.8405 22.612 34.8158 22.585C34.791 22.558 34.7612 22.5362 34.7281 22.5208C34.695 22.5054 34.6592 22.4967 34.6228 22.4952C34.1205 22.4952 33.621 22.4952 33.1215 22.4952C32.9633 22.4952 32.8967 22.6267 32.8912 22.7749C32.884 22.8403 32.9022 22.906 32.9421 22.9581C32.9819 23.0103 33.0403 23.0448 33.1048 23.0546C33.2186 23.0741 33.3824 22.9986 33.4351 23.0993C33.4878 23.2 33.4573 23.3426 33.4601 23.4685C33.4559 23.5281 33.4559 23.5879 33.4601 23.6475C33.5017 23.8628 33.4212 23.9495 33.1825 23.9775C32.5539 24.0704 31.9611 24.3301 31.4648 24.7298C31.2844 24.8696 31.1401 25.1018 30.9431 25.1549C30.7461 25.208 30.5019 25.0766 30.2771 25.057C30.2156 25.0577 30.1559 25.0361 30.109 24.996C30.0621 24.9559 30.0311 24.9001 30.0218 24.8389C29.9302 24.5424 29.822 24.2515 29.7443 23.9551C29.7082 23.8348 29.6555 23.7929 29.5251 23.8125C29.0672 23.8768 28.6065 23.9327 28.1376 23.9831C28.0155 23.997 27.9766 24.0446 27.9794 24.1649C27.9794 24.4445 27.9794 24.7242 27.9794 25.0039C27.9794 25.1241 27.9544 25.1912 27.8268 25.2248C27.615 25.2904 27.4075 25.3689 27.2051 25.4597C27.1651 25.4837 27.1179 25.4923 27.072 25.4841C27.0262 25.4759 26.9848 25.4514 26.9554 25.415C26.7389 25.1996 26.5058 25.0067 26.2977 24.7857C26.1506 24.6263 26.048 24.6067 25.8731 24.7578C25.554 25.0374 25.2155 25.3171 24.8714 25.5604C24.7243 25.6667 24.7159 25.7478 24.8131 25.896C24.9629 26.1253 25.0906 26.3715 25.2238 26.6064C25.239 26.624 25.2505 26.6445 25.2576 26.6667C25.2647 26.6889 25.2673 26.7124 25.2652 26.7356C25.2632 26.7588 25.2565 26.7814 25.2455 26.802C25.2346 26.8226 25.2196 26.8407 25.2016 26.8553C25.0441 27.0217 24.8977 27.1982 24.7631 27.3839C24.7397 27.4248 24.702 27.4555 24.6574 27.47C24.6128 27.4845 24.5644 27.4817 24.5217 27.4622C24.2442 27.3755 23.9389 27.3056 23.6531 27.2133C23.5005 27.1629 23.4311 27.2133 23.3756 27.3475C23.248 27.6468 23.0981 27.9376 22.9621 28.2313C22.8872 28.3935 22.7401 28.5697 22.7651 28.7123C22.7901 28.8549 23.0426 28.9221 23.1925 29.0311L23.2424 29.0731C22.5764 29.2549 21.9076 29.4283 21.2444 29.6324C18.3452 30.4973 15.5481 31.678 12.9027 33.1535C12.4975 33.3772 12.0979 33.615 11.6928 33.8387C11.6398 33.8632 11.5921 33.8981 11.5526 33.9413C11.5131 33.9845 11.4824 34.0352 11.4624 34.0904C11.1558 32.0308 11.609 29.9293 12.7362 28.1837C13.1773 27.4483 13.7614 26.8103 14.4533 26.308C15.1452 25.8058 15.9308 25.4497 16.7627 25.2612C17.8314 25.0289 18.9408 25.0693 19.9901 25.3786C20.1732 25.429 20.2065 25.3786 20.2426 25.2164C20.6854 23.1196 21.7603 21.212 23.3201 19.7544C24.1306 18.9721 25.0884 18.3615 26.137 17.9584C27.1856 17.5554 28.3036 17.3683 29.4252 17.408C31.6757 17.4779 33.5877 18.3924 35.1861 19.953C36.1856 20.9457 37.0022 22.1095 37.5976 23.3902L37.7031 23.6139C37.7974 23.6139 37.839 23.5328 37.8945 23.4825C39.2821 22.2547 40.9165 21.6562 42.773 21.8632C43.6582 21.9544 44.5161 22.2242 45.2956 22.6567C46.0751 23.0891 46.7602 23.6753 47.3102 24.3802C49.003 26.4861 49.3387 28.8549 48.5173 31.4084C48.4324 31.5973 48.4003 31.8059 48.4242 32.0119C48.4482 32.2179 48.5274 32.4134 48.6533 32.5774C48.9527 32.9868 49.1764 33.4472 49.3138 33.9366Z" fill="#FDFEFE"/>
<path d="M23.2452 29.0731L23.1952 29.0311C23.0426 28.9221 22.7984 28.8773 22.7651 28.7039C22.7318 28.5305 22.8872 28.3851 22.9621 28.2229C23.1009 27.9292 23.2396 27.6384 23.3756 27.3391C23.4367 27.1965 23.506 27.1545 23.6531 27.2049C23.9306 27.2972 24.2331 27.3671 24.5217 27.4538C24.5644 27.4733 24.6128 27.4761 24.6574 27.4616C24.702 27.4471 24.7397 27.4164 24.7631 27.3755C24.8977 27.1898 25.0441 27.0133 25.2016 26.8469C25.2196 26.8323 25.2346 26.8142 25.2455 26.7936C25.2564 26.773 25.2632 26.7504 25.2652 26.7272C25.2673 26.704 25.2647 26.6805 25.2576 26.6583C25.2505 26.6361 25.239 26.6156 25.2238 26.598C25.085 26.3631 24.9629 26.117 24.8131 25.8876C24.7159 25.7394 24.7243 25.6583 24.8713 25.552C25.2154 25.2975 25.554 25.0346 25.8731 24.7494C26.048 24.5983 26.1506 24.6179 26.2977 24.7773C26.5058 24.9983 26.7389 25.1912 26.9554 25.4066C26.9848 25.443 27.0262 25.4675 27.072 25.4757C27.1179 25.4839 27.1651 25.4753 27.2051 25.4513C27.4078 25.3652 27.6154 25.2915 27.8267 25.2304C27.9544 25.1968 27.9821 25.1297 27.9794 25.0095C27.9794 24.7298 27.9794 24.4501 27.9794 24.1704C27.9794 24.0502 28.0154 24.0026 28.1375 23.9887C28.5982 23.9383 29.0589 23.8824 29.5251 23.8181C29.6555 23.7985 29.7082 23.8404 29.7443 23.9607C29.8359 24.2571 29.9441 24.548 30.0218 24.8445C30.0311 24.9057 30.0621 24.9615 30.109 25.0016C30.1559 25.0416 30.2156 25.0633 30.2771 25.0626C30.5019 25.0822 30.7433 25.2164 30.9431 25.1605C31.1429 25.1045 31.2844 24.8808 31.4648 24.7354C31.9611 24.3357 32.5539 24.076 33.1825 23.9831C33.4073 23.9551 33.4878 23.8684 33.46 23.653C33.4559 23.5935 33.4559 23.5336 33.46 23.4741C33.46 23.3482 33.4906 23.1944 33.4351 23.1049C33.3796 23.0154 33.2186 23.0797 33.1048 23.0601C33.0403 23.0504 32.9819 23.0159 32.9421 22.9637C32.9022 22.9116 32.884 22.8459 32.8912 22.7805C32.8912 22.635 32.9633 22.5008 33.1215 22.5008C33.621 22.5008 34.1205 22.5008 34.6228 22.5008C34.6592 22.5023 34.695 22.511 34.7281 22.5264C34.7612 22.5418 34.791 22.5636 34.8158 22.5906C34.8405 22.6176 34.8597 22.6493 34.8723 22.6838C34.8849 22.7183 34.8906 22.7549 34.8892 22.7917C34.8877 22.8284 34.8791 22.8645 34.8638 22.8978C34.8485 22.9312 34.8269 22.9612 34.8001 22.9861C34.7733 23.0111 34.7418 23.0304 34.7076 23.0431C34.6734 23.0558 34.637 23.0616 34.6006 23.0601C34.5564 23.0657 34.5116 23.0657 34.4674 23.0601C34.3286 23.0378 34.2898 23.0993 34.2981 23.2335C34.3134 23.4038 34.3134 23.5751 34.2981 23.7453C34.2787 23.9243 34.3647 23.9691 34.5146 23.9887C34.9837 24.0596 35.4334 24.2271 35.8355 24.4809C35.9576 24.5592 36.038 24.5592 36.113 24.4417C36.1484 24.3938 36.1916 24.3522 36.2406 24.3187C36.3766 24.218 36.4265 24.1173 36.2573 24.0026C36.1518 23.9299 36.2018 23.8572 36.2767 23.8153C36.3516 23.7733 36.3849 23.5664 36.5542 23.7006L37.1092 24.1816C37.1536 24.2208 37.2396 24.2711 37.1425 24.3299C37.0454 24.3886 37.0232 24.5872 36.865 24.4753C36.7068 24.3634 36.7235 24.4361 36.6596 24.5088C36.3627 24.8333 36.3821 24.8277 36.6596 25.1549C37.1209 25.6346 37.4512 26.2264 37.6184 26.8728C37.7857 27.5191 37.7843 28.1981 37.6143 28.8438C37.5976 28.9165 37.5837 28.9892 37.5699 29.0591C37.3704 29.6327 37.0537 30.1577 36.6402 30.6001C36.3059 30.9469 35.9095 31.2269 35.4719 31.4251C35.4119 31.442 35.3593 31.4788 35.3225 31.5296C35.2858 31.5803 35.2671 31.642 35.2694 31.7048C35.2703 31.8305 35.2497 31.9554 35.2083 32.074C35.1029 32.3369 35.2083 32.4767 35.4386 32.5858C35.669 32.6948 35.8299 32.8179 36.0297 32.9298C36.0506 32.9361 36.0697 32.9472 36.0855 32.9624C36.1013 32.9775 36.1133 32.9962 36.1206 33.0169C36.1279 33.0376 36.1303 33.0597 36.1275 33.0815C36.1247 33.1033 36.1169 33.1241 36.1046 33.1423C35.927 33.5898 35.7494 34.0373 35.5802 34.4875C35.5302 34.6246 35.4553 34.6414 35.3276 34.605C35.0501 34.5239 34.7421 34.4596 34.4535 34.3785C34.393 34.3541 34.326 34.352 34.2641 34.3724C34.2022 34.3929 34.1494 34.4346 34.115 34.4903C34.0098 34.642 33.8919 34.7842 33.7625 34.9154C33.7405 34.9304 33.722 34.9501 33.7083 34.973C33.6946 34.9959 33.686 35.0215 33.6831 35.0482C33.6802 35.0748 33.683 35.1017 33.6915 35.1271C33.6999 35.1524 33.7138 35.1757 33.732 35.1951C33.8902 35.4552 34.0345 35.7209 34.1927 35.981C34.2593 36.0873 34.2648 36.1544 34.1538 36.2383C33.7838 36.5273 33.4138 36.8209 33.0438 37.1192C33.0288 37.1395 33.0093 37.1559 32.9869 37.1673C32.9645 37.1786 32.9398 37.1845 32.9148 37.1845C32.8897 37.1845 32.865 37.1786 32.8426 37.1673C32.8202 37.1559 32.8007 37.1395 32.7857 37.1192C32.5443 36.8787 32.2862 36.655 32.0476 36.4173C32.0119 36.3715 31.9606 36.3408 31.9037 36.331C31.8468 36.3212 31.7883 36.333 31.7395 36.3641C31.5655 36.4444 31.3855 36.5108 31.2012 36.5627C31.1762 36.5665 31.1521 36.5752 31.1305 36.5883C31.1088 36.6015 31.09 36.6188 31.075 36.6394C31.0601 36.6599 31.0493 36.6832 31.0433 36.708C31.0373 36.7328 31.0363 36.7585 31.0402 36.7836C31.0402 37.0801 31.0402 37.3765 31.0402 37.673C31.0402 37.7961 31.0125 37.8632 30.8793 37.88C30.4186 37.9415 29.9607 38.0086 29.4918 38.0813C29.3502 38.1037 29.2975 38.0422 29.2587 37.9191C29.1671 37.5975 29.0589 37.2815 28.9812 36.9626C28.9732 36.912 28.9476 36.8659 28.909 36.8325C28.8703 36.7992 28.8211 36.7809 28.7703 36.7808C28.5824 36.7712 28.3962 36.7403 28.2152 36.6886C28.0432 36.6326 27.9627 36.6886 27.8822 36.834C27.7379 37.0829 27.5714 37.3206 27.4216 37.5667C27.413 37.5908 27.3991 37.6125 27.3808 37.6302C27.3624 37.6479 27.3403 37.6611 27.3161 37.6686C27.2919 37.6762 27.2662 37.6781 27.2412 37.674C27.2162 37.6699 27.1924 37.66 27.1718 37.645C26.7639 37.4549 26.356 37.2703 25.9425 37.0857C25.8065 37.0298 25.7954 36.9486 25.826 36.8256C25.9037 36.5235 25.9675 36.2187 26.0507 35.9195C26.0716 35.8696 26.0739 35.8137 26.057 35.7623C26.0402 35.7109 26.0054 35.6673 25.9592 35.6398C25.7867 35.5127 25.6226 35.3744 25.468 35.2259C25.4512 35.2025 25.4297 35.1829 25.4049 35.1684C25.3801 35.1538 25.3526 35.1447 25.3241 35.1415C25.2956 35.1384 25.2668 35.1413 25.2395 35.15C25.2122 35.1587 25.187 35.1732 25.1655 35.1923C24.9324 35.3489 24.6882 35.472 24.4523 35.6398C24.3469 35.7097 24.283 35.7125 24.2026 35.5978C23.9158 35.1932 23.6217 34.797 23.3201 34.4092C23.3038 34.3949 23.291 34.377 23.2827 34.3569C23.2745 34.3367 23.2711 34.3149 23.2727 34.2931C23.2743 34.2714 23.2809 34.2504 23.2921 34.2317C23.3032 34.213 23.3185 34.1972 23.3368 34.1855C23.5671 33.9562 23.7835 33.7156 24.0166 33.4891C24.0577 33.4569 24.0857 33.4108 24.0954 33.3593C24.1051 33.3078 24.0958 33.2545 24.0694 33.2094C23.9884 33.0279 23.9198 32.841 23.864 32.6501C23.8552 32.5996 23.8276 32.5545 23.7868 32.5238C23.7461 32.4932 23.6953 32.4793 23.6448 32.4851C23.3673 32.4851 23.0898 32.4683 22.8289 32.4683C22.7096 32.4683 22.6569 32.4264 22.643 32.3089C22.5819 31.8223 22.5181 31.3384 22.4515 30.8546C22.4515 30.7455 22.4765 30.6952 22.5819 30.6644C22.8595 30.5833 23.137 30.4854 23.4145 30.4043C23.556 30.3652 23.6365 30.3092 23.6476 30.1247C23.6646 29.9354 23.6989 29.7482 23.7502 29.5653C23.7663 29.524 23.766 29.4781 23.7495 29.437C23.733 29.3959 23.7015 29.3628 23.6614 29.3444C23.531 29.2633 23.3895 29.1598 23.2452 29.0731ZM29.5112 25.9464C28.5843 25.9373 27.6738 26.1924 26.8845 26.6821C26.0952 27.1717 25.4592 27.8762 25.0497 28.7142C24.6403 29.5522 24.474 30.4898 24.5701 31.4189C24.6662 32.348 25.0208 33.2308 25.593 33.9657C26.1651 34.7006 26.9317 35.2577 27.8042 35.5727C28.6768 35.8878 29.6199 35.9481 30.525 35.7466C31.43 35.5451 32.2602 35.09 32.9199 34.4339C33.5796 33.7777 34.0419 32.947 34.2537 32.0376C34.3148 31.7747 34.3148 31.7579 34.04 31.7803C33.5165 31.8109 32.9923 31.7327 32.5001 31.5503C32.0079 31.3679 31.5582 31.0854 31.179 30.7204C30.5797 30.1624 30.1712 29.4275 30.0121 28.6211C29.8531 27.8146 29.9517 26.9781 30.2937 26.2316C30.377 26.0442 30.3243 26.0051 30.1494 25.9911C29.9377 25.9637 29.7246 25.9488 29.5112 25.9464ZM33.8652 24.7885C33.1466 24.7915 32.4513 25.0455 31.8977 25.5073C31.7395 25.6359 31.7118 25.7366 31.8977 25.8373C32.0836 25.938 31.9893 26.0666 31.8977 26.1841C31.7867 26.3491 31.7312 26.1841 31.6563 26.1449C31.6222 26.1293 31.5919 26.1064 31.5675 26.0778C31.4731 25.9715 31.4121 25.9967 31.3372 26.1114C31.1163 26.4438 30.9582 26.8146 30.8709 27.2049C30.7655 27.6859 30.7627 27.6859 31.2484 27.6915H31.2706C31.3705 27.6915 31.4371 27.6915 31.4371 27.8313C31.4371 27.9712 31.3927 28.0019 31.2706 27.9936C31.1485 27.9852 31.0624 27.9936 30.9625 27.9936C30.8626 27.9936 30.7932 28.0215 30.8099 28.1558C30.8603 28.606 31.004 29.0404 31.2317 29.4311C31.4093 29.7107 31.4176 29.7331 31.6507 29.5038C31.7812 29.3751 31.8394 29.4311 31.9449 29.529C32.0503 29.6268 32.0143 29.7107 31.9199 29.789C31.8755 29.8282 31.8422 29.8785 31.795 29.9149C31.6868 29.996 31.7173 30.0575 31.795 30.1358C32.243 30.5377 32.7975 30.7991 33.3907 30.8882C33.6682 30.9273 33.6682 30.9245 33.6682 30.6365C33.6723 30.5554 33.6723 30.4742 33.6682 30.3931C33.6682 30.2925 33.707 30.2757 33.7986 30.2673C33.9734 30.2505 34.0761 30.2953 34.0317 30.491C34.0317 30.5637 34.0317 30.6393 34.0317 30.712C34.0123 30.877 34.0817 30.9161 34.2343 30.8938C34.7978 30.8184 35.3293 30.5859 35.7689 30.2225C36.0464 29.9988 36.0464 29.996 35.7689 29.7611C35.6856 29.6912 35.6107 29.6408 35.7189 29.5178C35.8271 29.3947 35.8771 29.3835 35.9798 29.4898C36.0242 29.5373 36.088 29.5653 36.1352 29.6129C36.2267 29.7051 36.2822 29.6856 36.3516 29.5793C36.5837 29.2292 36.7458 28.8369 36.8289 28.4243C36.9066 28.0019 36.9122 27.9991 36.4931 27.9991C36.3849 27.9991 36.2906 28.0131 36.2961 27.8481C36.3017 27.6831 36.3516 27.6468 36.4931 27.6691C36.5375 27.6691 36.5819 27.6691 36.6263 27.6691C36.8539 27.7167 36.8817 27.5964 36.8511 27.409C36.7761 26.9767 36.6218 26.5622 36.396 26.1869C36.2822 25.9939 36.1879 25.9687 36.0464 26.1393C35.9048 26.3099 35.8493 26.2959 35.7217 26.1393C35.594 25.9827 35.7217 25.938 35.8077 25.8597C35.9992 25.6807 36.0047 25.6835 35.8077 25.5129C35.2638 25.0506 34.5767 24.7944 33.8652 24.7885Z" fill="#324558"/>
<path d="M39.6539 33.0976L39.4735 33.0612C39.0462 32.9577 38.7881 33.1563 38.7437 33.601C38.7437 33.71 38.7853 33.8611 38.5827 33.8806C38.1665 33.9254 38.1276 33.9366 38.0832 33.6849C38.0277 33.3409 37.7502 33.2933 37.506 33.1787C37.3978 33.1311 37.2924 33.2514 37.1952 33.3101C37.0981 33.3688 36.9788 33.3828 36.9177 33.2486L36.89 33.215C36.6624 32.9354 36.6624 32.9354 36.9066 32.6557C36.9889 32.5387 37.026 32.3956 37.0112 32.2531C36.9964 32.1105 36.9306 31.9782 36.8261 31.881C36.507 31.6489 36.4959 31.5258 36.754 31.207C36.7662 31.1906 36.7816 31.1769 36.7992 31.1666C36.8168 31.1564 36.8362 31.1497 36.8564 31.1471C36.8765 31.1445 36.897 31.146 36.9166 31.1515C36.9362 31.1569 36.9545 31.1663 36.9705 31.179C37.2785 31.3664 37.4783 31.1315 37.692 30.9888C37.8002 30.9161 37.7253 30.7679 37.7447 30.656C37.7641 30.5442 37.6809 30.4155 37.8807 30.3764C38.3358 30.3148 38.3691 30.3008 38.4024 30.547C38.4495 30.8742 38.7021 30.9385 38.9268 31.0392C39.0351 31.0867 39.1405 30.9944 39.2293 30.9413C39.261 30.9181 39.2972 30.9019 39.3356 30.8938C39.3739 30.8857 39.4136 30.8859 39.4518 30.8944C39.4901 30.9028 39.5262 30.9194 39.5577 30.9429C39.5891 30.9664 39.6153 30.9963 39.6345 31.0308C39.8398 31.3105 39.8482 31.2965 39.6345 31.5454C39.5713 31.6059 39.5231 31.6806 39.4939 31.7634C39.4647 31.8462 39.4552 31.9348 39.4663 32.0219C39.4774 32.1091 39.5087 32.1924 39.5577 32.2651C39.6067 32.3378 39.6719 32.3978 39.7482 32.4403C39.8204 32.4935 39.9619 32.5298 39.937 32.6305C39.8877 32.7848 39.8197 32.9322 39.7344 33.0696C39.7177 33.106 39.6594 33.0976 39.6539 33.0976ZM38.2248 31.4643C38.1384 31.4643 38.0529 31.4814 37.9731 31.5147C37.8933 31.548 37.8208 31.5969 37.7597 31.6584C37.6986 31.72 37.6502 31.793 37.6171 31.8735C37.5841 31.9539 37.5671 32.0401 37.5671 32.1271C37.5692 32.303 37.6389 32.4713 37.7615 32.5964C37.8842 32.7216 38.0503 32.794 38.2248 32.7983C38.3133 32.7987 38.401 32.7812 38.4827 32.7469C38.5644 32.7127 38.6384 32.6622 38.7005 32.5986C38.7626 32.535 38.8114 32.4596 38.8441 32.3767C38.8767 32.2938 38.8926 32.2051 38.8908 32.1159C38.8904 32.0288 38.8728 31.9426 38.839 31.8624C38.8052 31.7822 38.7558 31.7096 38.6937 31.6489C38.6317 31.5883 38.5583 31.5407 38.4777 31.5089C38.3972 31.4772 38.3112 31.462 38.2248 31.4643Z" fill="#324558"/>
<path d="M29.5112 25.9464C29.7246 25.9488 29.9378 25.9637 30.1495 25.9911C30.3243 26.0051 30.377 26.0442 30.2938 26.2316C29.9517 26.9781 29.8531 27.8146 30.0122 28.6211C30.1712 29.4275 30.5797 30.1625 31.179 30.7204C31.5582 31.0854 32.0079 31.3679 32.5001 31.5503C32.9923 31.7327 33.5165 31.811 34.0401 31.7803C34.3176 31.7803 34.3176 31.7803 34.2537 32.0376C34.042 32.947 33.5796 33.7777 32.9199 34.4339C32.2602 35.09 31.4301 35.5451 30.525 35.7466C29.6199 35.9481 28.6768 35.8878 27.8042 35.5727C26.9317 35.2577 26.1652 34.7006 25.593 33.9657C25.0208 33.2308 24.6663 32.348 24.5701 31.4189C24.474 30.4898 24.6403 29.5522 25.0497 28.7142C25.4592 27.8762 26.0952 27.1717 26.8845 26.6821C27.6739 26.1924 28.5844 25.9373 29.5112 25.9464Z" fill="#B5C1CC"/>
<path d="M33.8652 24.7885C34.577 24.7952 35.2642 25.0524 35.8077 25.5157C36.0103 25.6863 36.0048 25.6835 35.8077 25.8625C35.7356 25.9324 35.5913 25.9687 35.7217 26.1421C35.8521 26.3155 35.9382 26.2764 36.0464 26.1421C36.1546 26.0079 36.2823 25.9967 36.396 26.1897C36.6212 26.5633 36.7755 26.9758 36.8511 27.4062C36.8817 27.5936 36.8511 27.7139 36.6264 27.6663C36.582 27.6663 36.5376 27.6663 36.4932 27.6663C36.3516 27.644 36.3017 27.6971 36.2961 27.8453C36.2906 27.9936 36.3849 27.9964 36.4932 27.9964C36.9122 27.9964 36.9066 27.9964 36.8289 28.4215C36.7492 28.8333 36.5909 29.2256 36.3627 29.5765C36.2934 29.6828 36.2379 29.7024 36.1463 29.6101C36.0991 29.5625 36.0353 29.5346 35.9909 29.487C35.8882 29.3807 35.8216 29.4087 35.73 29.515C35.6385 29.6213 35.6967 29.6884 35.78 29.7583C36.0575 29.9932 36.0575 29.996 35.78 30.2197C35.3404 30.5831 34.809 30.8156 34.2454 30.891C34.0928 30.9133 34.0234 30.8742 34.0428 30.7092C34.0428 30.6365 34.0428 30.5609 34.0428 30.4882C34.0733 30.2925 33.9845 30.2477 33.8097 30.2645C33.7181 30.2645 33.671 30.2897 33.6793 30.3903C33.6834 30.4714 33.6834 30.5526 33.6793 30.6337C33.6793 30.9133 33.6793 30.9133 33.4018 30.8854C32.8086 30.7963 32.2541 30.5349 31.8061 30.133C31.7173 30.0547 31.6868 29.9932 31.8061 29.9121C31.8533 29.8758 31.8866 29.8254 31.931 29.7863C32.0254 29.7079 32.0809 29.6408 31.956 29.5262C31.8311 29.4115 31.7923 29.3723 31.6618 29.501C31.4287 29.7303 31.4204 29.7191 31.2428 29.4283C31.0111 29.0358 30.8645 28.5983 30.8127 28.1446C30.796 28.0103 30.8404 27.974 30.9653 27.9824C31.0902 27.9908 31.1707 27.9824 31.2733 27.9824C31.376 27.9824 31.4426 27.9488 31.4398 27.8202C31.4371 27.6915 31.3732 27.6719 31.2733 27.6803H31.2511C30.7655 27.6803 30.7683 27.6803 30.8737 27.1937C30.961 26.8034 31.1191 26.4327 31.3399 26.1002C31.4149 25.9855 31.4759 25.9603 31.5703 26.0666C31.5947 26.0952 31.625 26.1181 31.6591 26.1337C31.734 26.1645 31.7895 26.3379 31.9005 26.1729C31.981 26.0554 32.1086 25.9408 31.9005 25.8261C31.6924 25.7114 31.7368 25.6247 31.9005 25.4961C32.4548 25.0389 33.1489 24.7889 33.8652 24.7885ZM34.04 26.4274C34.04 26.0442 34.04 25.6583 34.04 25.2724C34.04 25.1605 33.9929 25.0738 33.8819 25.0682C33.7709 25.0626 33.7209 25.1521 33.7181 25.2612C33.7181 25.3143 33.7181 25.3646 33.7181 25.4178C33.7181 26.075 33.7181 26.735 33.7181 27.3951C33.7282 27.462 33.7183 27.5305 33.6896 27.5918C33.661 27.653 33.6149 27.7043 33.5572 27.7391C33.5071 27.7742 33.4647 27.8193 33.4327 27.8717C33.4007 27.924 33.3798 27.9825 33.3712 28.0434C33.3626 28.1043 33.3665 28.1663 33.3828 28.2256C33.399 28.2848 33.4272 28.3401 33.4656 28.3879C33.5028 28.4385 33.5497 28.4813 33.6033 28.5136C33.657 28.546 33.7165 28.5673 33.7784 28.5764C33.8403 28.5855 33.9034 28.5822 33.964 28.5666C34.0246 28.5511 34.0816 28.5236 34.1316 28.4858C34.1822 28.4514 34.2251 28.4068 34.2575 28.3548C34.29 28.3028 34.3114 28.2445 34.3203 28.1837C34.3292 28.123 34.3254 28.061 34.3091 28.0017C34.2929 27.9425 34.2646 27.8873 34.226 27.8397C34.0012 27.6496 34.0428 27.4314 34.04 27.2049C34.0373 26.9784 34.0289 26.6875 34.0262 26.4274H34.04Z" fill="#FDFEFE"/>
<path d="M38.2248 31.4643C38.3112 31.462 38.3972 31.4772 38.4777 31.5089C38.5583 31.5407 38.6317 31.5883 38.6937 31.6489C38.7558 31.7096 38.8052 31.7822 38.839 31.8624C38.8728 31.9426 38.8904 32.0288 38.8908 32.1159C38.8926 32.2051 38.8767 32.2938 38.8441 32.3767C38.8114 32.4596 38.7626 32.535 38.7005 32.5986C38.6384 32.6622 38.5644 32.7127 38.4827 32.7469C38.401 32.7812 38.3133 32.7987 38.2248 32.7983C38.0502 32.794 37.8842 32.7216 37.7615 32.5964C37.6389 32.4713 37.5692 32.303 37.5671 32.1271C37.5671 32.0401 37.5841 31.9539 37.6171 31.8735C37.6502 31.793 37.6986 31.72 37.7597 31.6584C37.8208 31.5969 37.8933 31.548 37.9731 31.5147C38.0529 31.4814 38.1384 31.4643 38.2248 31.4643Z" fill="#B5C1CC"/>
<path d="M34.0289 26.4274C34.0289 26.6875 34.0289 26.9476 34.0289 27.2049C34.0289 27.4622 33.9901 27.6496 34.2149 27.8397C34.2535 27.8873 34.2818 27.9425 34.298 28.0017C34.3143 28.0609 34.3181 28.1229 34.3092 28.1837C34.3003 28.2445 34.2789 28.3028 34.2464 28.3548C34.214 28.4068 34.1711 28.4514 34.1205 28.4858C34.0705 28.5236 34.0135 28.5511 33.9529 28.5666C33.8923 28.5822 33.8292 28.5855 33.7673 28.5764C33.7054 28.5673 33.6459 28.546 33.5922 28.5136C33.5385 28.4813 33.4917 28.4385 33.4545 28.3879C33.4161 28.3401 33.3879 28.2848 33.3717 28.2255C33.3554 28.1663 33.3515 28.1042 33.3601 28.0434C33.3687 27.9825 33.3896 27.924 33.4216 27.8717C33.4536 27.8193 33.496 27.7742 33.5461 27.739C33.6038 27.7043 33.6499 27.653 33.6785 27.5917C33.7072 27.5305 33.7171 27.462 33.707 27.3951C33.707 26.735 33.707 26.075 33.707 25.4178C33.707 25.3646 33.707 25.3143 33.707 25.2612C33.707 25.1521 33.757 25.0626 33.8708 25.0682C33.9845 25.0738 34.0289 25.1605 34.0289 25.2723C34.0262 25.6583 34.0262 26.0442 34.0289 26.4274Z" fill="#324558"/>
</svg>
