<svg width="61" height="60" viewBox="0 0 61 60" fill="none" xmlns="http://www.w3.org/2000/svg">
<path d="M43.6057 0C48.6762 0 53.7468 0.0470035 58.8095 0C59.7421 0 59.985 0.274187 59.985 1.19076C59.985 11.3278 60.1261 21.4649 59.9067 31.602C59.7459 37.7423 57.5395 43.6533 53.6371 48.398C49.1956 54.2051 42.7503 58.1512 35.5571 59.4673C29.6581 60.6054 23.5519 59.9138 18.0571 57.4853C12.8407 55.2377 8.3778 51.5432 5.19663 46.839C2.36115 42.7687 0.635209 38.0303 0.188788 33.0905C-0.255804 29.2006 0.0867808 25.2611 1.19616 21.5063C2.30555 17.7515 4.15907 14.2581 6.64647 11.2338C11.048 5.64606 17.3317 1.84837 24.3267 0.548374C25.9915 0.195463 27.6877 0.0117372 29.3894 0C34.1308 0.0391696 38.8643 0 43.6057 0Z" fill="#EEF3F8"/>
<path d="M38.0179 38.0102C38.0179 39.9295 38.0179 41.8566 38.0179 43.776C38.0503 44.3322 37.9655 44.889 37.769 45.4104C37.5724 45.9318 37.2686 46.4061 36.877 46.8027C36.4855 47.1992 36.015 47.5092 35.496 47.7125C34.9771 47.9158 34.4212 48.0078 33.8643 47.9828H16.1684C15.6121 48.0121 15.0559 47.9242 14.5358 47.7247C14.0157 47.5253 13.5434 47.2187 13.1495 46.825C12.7557 46.4312 12.449 45.9591 12.2494 45.4392C12.0499 44.9194 11.962 44.3633 11.9913 43.8073C11.9913 37.9214 11.9913 32.0381 11.9913 26.1575C11.9674 25.6012 12.0604 25.046 12.2642 24.5278C12.468 24.0096 12.7781 23.5398 13.1746 23.1487C13.571 22.7576 14.045 22.4538 14.5661 22.2569C15.0871 22.06 15.6436 21.9743 16.1998 22.0055H21.9678C22.3759 21.741 22.8647 21.63 23.3471 21.6921C26.7483 21.6921 30.1496 21.6921 33.5352 21.6921C36.5367 21.6921 38.2844 23.4626 38.3157 26.463C38.3157 29.8629 38.3157 33.255 38.3157 36.6471C38.3755 37.1221 38.2704 37.6033 38.0179 38.0102Z" fill="#324558"/>
<path d="M38.018 38.0102C38.018 34.1246 38.018 30.2389 38.018 26.3533C38.018 23.6428 36.38 22.0133 33.6684 22.0055L21.9756 21.9741C21.9756 19.718 21.9756 17.4618 21.9756 15.2056C21.9479 14.7791 22.0116 14.3515 22.1626 13.9515C22.3136 13.5516 22.5483 13.1885 22.851 12.8866C23.1538 12.5847 23.5176 12.351 23.9181 12.201C24.3186 12.0511 24.7465 11.9884 25.1731 12.0172H44.7029C45.139 11.9817 45.5777 12.0414 45.9884 12.1922C46.3991 12.3431 46.7721 12.5814 47.0815 12.8906C47.3909 13.1999 47.6293 13.5728 47.7802 13.9833C47.9311 14.3939 47.9908 14.8324 47.9553 15.2683C47.9553 21.7705 47.9553 28.2778 47.9553 34.7904C47.9837 35.2159 47.9214 35.6425 47.7724 36.042C47.6234 36.4415 47.3911 36.8048 47.091 37.1078C46.7908 37.4108 46.4297 37.6465 46.0315 37.7994C45.6333 37.9523 45.2071 38.0188 44.7813 37.9945L38.018 38.0102Z" fill="#B5C1CC"/>
</svg>
