<svg width="31" height="30" viewBox="0 0 31 30" fill="none" xmlns="http://www.w3.org/2000/svg">
<path d="M22.6822 21.6721C22.6822 23.2717 22.6822 24.8779 22.6822 26.4775C22.7092 26.9411 22.6385 27.4052 22.4747 27.8398C22.3109 28.2743 22.0576 28.6696 21.7313 29.0001C21.405 29.3307 21.0129 29.589 20.5803 29.7584C20.1478 29.9278 19.6845 30.0046 19.2204 29.9837H4.47178C4.00816 30.0081 3.54457 29.9349 3.11111 29.7686C2.67765 29.6024 2.28401 29.3469 1.95572 29.0187C1.62743 28.6906 1.37184 28.2971 1.20553 27.8638C1.03923 27.4305 0.965923 26.9671 0.990376 26.5037C0.990376 21.5981 0.990376 16.6947 0.990376 11.7935C0.970495 11.3298 1.04798 10.8671 1.21783 10.4352C1.38768 10.0034 1.64614 9.61181 1.97656 9.28582C2.30699 8.95983 2.70205 8.70663 3.1363 8.54253C3.57056 8.37842 4.03438 8.30705 4.49791 8.333H9.30525C9.64541 8.11259 10.0528 8.02004 10.4548 8.07184C13.2896 8.07184 16.1244 8.07184 18.9461 8.07184C21.4477 8.07184 22.9043 9.54742 22.9304 12.0481C22.9304 14.8817 22.9304 17.7089 22.9304 20.536C22.9802 20.9319 22.8926 21.3329 22.6822 21.6721Z" fill="#324558"/>
<path d="M22.6822 21.6721C22.6822 18.4336 22.6822 15.1951 22.6822 11.9567C22.6822 9.69758 21.3171 8.33951 19.0571 8.33299L9.3118 8.30687C9.3118 6.42647 9.3118 4.54607 9.3118 2.66567C9.28865 2.31015 9.34178 1.95378 9.46761 1.62045C9.59344 1.28711 9.78907 0.9845 10.0414 0.732883C10.2937 0.481266 10.5969 0.286452 10.9307 0.161489C11.2645 0.0365256 11.6211 -0.0157012 11.9767 0.00830647H28.2538C28.6173 -0.0213039 28.9828 0.0284658 29.3252 0.154165C29.6675 0.279864 29.9783 0.478485 30.2362 0.736254C30.4941 0.994024 30.6928 1.30477 30.8185 1.64696C30.9443 1.98914 30.9941 2.35457 30.9644 2.71791C30.9644 8.13711 30.9644 13.5607 30.9644 18.9886C30.9882 19.3432 30.9362 19.6987 30.812 20.0317C30.6878 20.3647 30.4942 20.6675 30.2441 20.92C29.994 21.1725 29.693 21.369 29.3611 21.4964C29.0292 21.6238 28.674 21.6792 28.3191 21.659L22.6822 21.6721Z" fill="#B5C1CC"/>
</svg>
