<svg width="20" height="20" viewBox="0 0 20 20" fill="none" xmlns="http://www.w3.org/2000/svg">
<path d="M7.82838 9.32626C7.11985 9.78556 6.44917 10.2201 5.77979 10.6546C5.58798 10.7851 5.4314 10.7942 5.29048 10.5698C4.8638 9.89777 4.42668 9.2297 4 8.56684C4.07307 8.49769 4.11222 8.43636 4.13048 8.44549C4.94992 8.743 5.18348 8.29022 5.46663 7.59866C6.60967 4.79718 9.67863 3.40623 12.685 4.24002C15.4251 4.99813 17.3223 7.86876 16.9544 10.6885C16.5525 13.7666 14.0603 16.0044 11.0239 16.02C9.05101 16.02 7.46172 15.2371 6.20647 13.7196C5.89853 13.3504 5.89853 13.1416 6.33696 12.8728C6.82627 12.5727 7.10681 12.4461 7.58829 13.0124C9.01056 14.6865 11.2849 15.0166 13.2069 13.961C14.9789 12.9889 15.9066 10.7772 15.3599 8.82781C14.7831 6.77531 12.8911 5.3413 10.793 5.46787C8.93096 5.58139 7.57524 6.5026 6.77407 8.22498C6.51963 8.7717 6.62141 9.01571 7.22294 9.0692C7.40822 9.08878 7.62352 9.06268 7.82838 9.32626Z" fill="#797F8B"/>
<path d="M10.2149 8.29675C10.2149 7.84136 10.2345 7.38337 10.2084 6.93059C10.1888 6.58351 10.3167 6.45302 10.6533 6.49478C10.7833 6.51185 10.9149 6.51185 11.0448 6.49478C11.5419 6.41649 11.769 6.59655 11.6842 7.11849C11.3971 8.87871 11.8447 10.3479 13.3804 11.3827C13.6558 11.568 13.6871 11.7741 13.4039 11.996C13.2346 12.1324 13.0806 12.2868 12.9446 12.4566C12.7202 12.7358 12.5532 12.6679 12.3327 12.4331C11.9613 12.0085 11.5616 11.6096 11.1361 11.2391C10.4237 10.6507 10.0923 9.93432 10.2071 9.0131C10.2241 8.77469 10.2267 8.53548 10.2149 8.29675Z" fill="#E4E5E8"/>
</svg>
