<svg width="40" height="40" viewBox="0 0 40 40" fill="none" xmlns="http://www.w3.org/2000/svg">
<path d="M20.0095 5H30.7015C33.7043 5 34.9858 6.30177 34.9858 9.33922C34.9858 11.0018 34.9858 12.669 34.9858 14.3362C34.9858 14.8569 34.8487 15.0167 34.3143 15.0076C32.1532 14.9802 29.9874 14.9848 27.8216 15.0076C27.3487 15.0076 27.1122 14.898 26.994 14.4001C26.9001 13.9445 26.6385 13.5372 26.2578 13.2534C25.8771 12.9696 25.4028 12.8286 24.9228 12.8563C21.6283 12.8167 18.3323 12.8167 15.0347 12.8563C14.5544 12.8323 14.0813 12.9768 13.7025 13.2629C13.3236 13.5491 13.0646 13.9578 12.9729 14.4138C12.8499 14.9117 12.604 15.0122 12.1359 15.0076C10.0079 14.9833 7.87674 14.9833 5.74244 15.0076C5.22226 15.0076 4.97163 14.9391 4.98581 14.3225C5.04256 12.4269 5 10.5268 5.02365 8.62667C5.06148 6.48904 6.5558 5.02741 8.72163 5C12.4811 5 16.2453 5 20.0095 5Z" fill="white"/>
<path d="M19.948 34.9954H9.07156C6.41866 34.9909 5 33.5612 5 30.9074C5 29.1717 5.02364 27.4406 5 25.7095C5 25.1431 5.15132 24.9741 5.72352 24.9833C7.88462 25.0152 10.0504 24.9833 12.2163 24.9833C12.6466 24.9833 12.8783 25.0837 12.9823 25.5405C13.0708 26.0134 13.337 26.4381 13.7297 26.7331C14.1224 27.0281 14.614 27.1727 15.1103 27.1392C18.3733 27.1757 21.6362 27.1666 24.8991 27.1392C25.3926 27.1647 25.8792 27.019 26.2712 26.7283C26.6631 26.4377 26.9346 26.0212 27.0366 25.5542C27.0455 25.4683 27.0728 25.3852 27.1168 25.3101C27.1608 25.235 27.2205 25.1696 27.2922 25.1181C27.3638 25.0665 27.4458 25.0299 27.5328 25.0106C27.6199 24.9913 27.7102 24.9898 27.7979 25.0061C29.959 25.0289 32.1248 25.0061 34.2907 25.0061C34.7636 25.0061 35.0142 25.0563 35 25.6364C34.9622 27.6005 35.0284 29.5691 34.9716 31.5332C34.9733 32.0012 34.8768 32.4647 34.6878 32.8956C34.4989 33.3266 34.2214 33.716 33.8723 34.0405C33.5231 34.365 33.1094 34.6177 32.6563 34.7834C32.2031 34.9491 31.7199 35.0243 31.2358 35.0046C27.4764 35.0046 23.7122 34.9954 19.948 34.9954Z" fill="white"/>
<path d="M8.89187 16.419C9.95586 16.419 11.0199 16.4418 12.0839 16.419C12.6513 16.419 12.8357 16.62 12.8263 17.1772C12.8042 19.0743 12.8042 20.9714 12.8263 22.8684C12.8263 23.4211 12.6513 23.6312 12.0839 23.6267C9.95586 23.5993 7.82787 23.6267 5.69515 23.6267C5.17024 23.6038 5 23.4029 5 22.8958C5 20.9638 5.02364 19.0362 5 17.1041C5 16.4966 5.279 16.387 5.79918 16.419C6.82535 16.419 7.86097 16.419 8.89187 16.419Z" fill="white"/>
<path d="M31.0372 23.5947C30.0063 23.5947 28.9754 23.5719 27.9445 23.5947C27.4054 23.5947 27.169 23.4485 27.1737 22.8639C27.2021 20.9364 27.1737 19.0043 27.1737 17.0767C27.1737 16.5378 27.396 16.3916 27.8925 16.3962C30.0205 16.3962 32.1485 16.3962 34.2765 16.3962C34.7494 16.3962 34.9953 16.5378 34.9905 17.0767C34.9685 19.0043 34.9685 20.9333 34.9905 22.8639C34.9905 23.444 34.7683 23.613 34.2245 23.5947C33.1652 23.5719 32.1012 23.5947 31.0372 23.5947Z" fill="white"/>
</svg>
