<svg width="12" height="12" viewBox="0 0 12 12" fill="none" xmlns="http://www.w3.org/2000/svg">
<g clip-path="url(#clip0_29_28)">
<path d="M5.92321 -6.95542e-05C6.71414 -0.00888012 7.49903 0.138494 8.23287 0.433602C8.96671 0.72871 9.63507 1.16575 10.1996 1.71965C10.7642 2.27356 11.2138 2.93344 11.5228 3.66145C11.8317 4.38946 11.9939 5.17129 12 5.9621C12 9.26254 9.32888 11.9933 6.07457 11.9999C5.28401 12.0084 4.49954 11.8609 3.7661 11.5658C3.03266 11.2707 2.36466 10.8338 1.80037 10.2802C1.23608 9.72656 0.78659 9.06704 0.477651 8.33943C0.168713 7.61182 0.00639607 6.83042 0 6.03999C0 2.73732 2.67112 -6.95542e-05 5.92321 -6.95542e-05ZM4.67446 6.00883C4.64107 6.57857 4.67446 7.12159 5.19087 7.50216C5.38422 7.66278 5.6217 7.76109 5.87202 7.78413C6.12235 7.80717 6.37378 7.75387 6.59321 7.63124C7.26099 7.28851 7.39677 6.69652 7.31887 6.01328C8.20924 6.01328 9.09961 5.98213 9.98998 6.01328C10.562 6.03554 10.7668 5.80186 10.6578 5.27664C10.5157 4.53952 10.2174 3.84137 9.78297 3.22916C8.60768 1.698 7.00056 1.05705 5.14636 1.40646C3.13411 1.78035 1.93211 3.11566 1.4246 5.11863C1.23317 5.86863 1.46466 6.05779 2.17474 6.01996C3.00501 5.96655 3.83973 6.00883 4.67446 6.00883Z" fill="#B5C1CC"/>
<path d="M4.67445 6.00889C3.84195 6.00889 3.00722 5.97328 2.17695 6.00889C1.46688 6.04672 1.23538 5.85755 1.42681 5.10755C1.9321 3.11571 3.1341 1.7804 5.14634 1.40651C7.00055 1.05711 8.60767 1.69806 9.76738 3.22476C10.2019 3.83698 10.5001 4.53513 10.6422 5.27224C10.7579 5.79746 10.5531 6.03114 9.97439 6.00889C9.08402 5.97551 8.19365 6.00889 7.30327 6.00889C6.90038 4.75592 6.47745 3.50295 6.01001 2.08975C5.51585 3.52076 5.09515 4.76037 4.67445 6.00889Z" fill="#E5EAF1"/>
<path d="M4.67447 6.0089C5.09739 4.76706 5.51809 3.52744 6.01002 2.09644C6.48637 3.50964 6.9004 4.76706 7.32555 6.01335C7.40346 6.69658 7.26322 7.28857 6.5999 7.6313C6.38047 7.75393 6.12903 7.80724 5.87871 7.7842C5.62838 7.76116 5.39091 7.66285 5.19756 7.50222C4.67447 7.12166 4.63885 6.57195 4.67447 6.0089Z" fill="#384A5D"/>
</g>
<defs>
<clipPath id="clip0_29_28">
<rect width="12" height="12" fill="white"/>
</clipPath>
</defs>
</svg>
